<svg width="1890" height="1890" xmlns="http://www.w3.org/2000/svg" xmlns:xlink="http://www.w3.org/1999/xlink" overflow="hidden"><defs><clipPath id="clip0"><rect x="287" y="0" width="1890" height="1890"/></clipPath></defs><g clip-path="url(#clip0)" transform="translate(-287 0)"><path d="M1767.6 919.545C1764 919.549 1761.09 922.46 1761.09 926.052L1761.09 1372.8C1761.09 1376.39 1764 1379.3 1767.6 1379.31L2389.98 1379.31C2393.58 1379.3 2396.49 1376.39 2396.49 1372.8L2396.49 926.052C2396.49 922.46 2393.58 919.549 2389.98 919.545Z" fill="#E6E6E6" transform="matrix(1.01984 0 0 1 -267.041 -157.408)"/><path d="M2355.61 959.501 2355.61 1276.99C2355.61 1281.4 2352.04 1284.98 2347.63 1284.98L1808.67 1284.98C1808.29 1284.99 1807.92 1284.95 1807.54 1284.88 1803.61 1284.33 1800.69 1280.96 1800.69 1276.99L1800.69 959.501C1800.69 955.09 1804.26 951.515 1808.67 951.514L2347.63 951.514C2352.04 951.515 2355.61 955.09 2355.61 959.501Z" fill="#FFFFFF" transform="matrix(1.01984 0 0 1 -267.041 -157.408)"/><path d="M1729.6 910.139C1729.6 926.13 1716.63 939.093 1700.64 939.093 1684.65 939.093 1671.69 926.13 1671.69 910.139 1671.69 894.148 1684.65 881.185 1700.64 881.185 1716.63 881.185 1729.6 894.148 1729.6 910.139Z" fill="#FF6584" transform="matrix(1.01984 0 0 1 287 0.306924)"/><path d="M1245.97 777.883C1245.97 783.155 1241.7 787.429 1236.42 787.429 1231.15 787.429 1226.88 783.155 1226.88 777.883 1226.88 772.611 1231.15 768.337 1236.42 768.337 1241.7 768.337 1245.97 772.611 1245.97 777.883Z" fill="#3F3D56" transform="matrix(1.01984 0 0 1 287 0.306924)"/><path d="M1842.9 777.883C1842.9 783.155 1838.63 787.429 1833.36 787.429 1828.09 787.429 1823.81 783.155 1823.81 777.883 1823.81 772.611 1828.09 768.337 1833.36 768.337 1838.63 768.337 1842.9 772.611 1842.9 777.883Z" fill="#3F3D56" transform="matrix(1.01984 0 0 1 287 0.306924)"/><path d="M1245.97 1205.54C1245.97 1210.81 1241.7 1215.08 1236.42 1215.08 1231.15 1215.08 1226.88 1210.81 1226.88 1205.54 1226.88 1200.26 1231.15 1195.99 1236.42 1195.99 1241.7 1195.99 1245.97 1200.27 1245.97 1205.54Z" fill="#3F3D56" transform="matrix(1.01984 0 0 1 287 0.306924)"/><path d="M1842.9 1205.54C1842.9 1210.81 1838.63 1215.08 1833.36 1215.08 1828.09 1215.08 1823.81 1210.81 1823.81 1205.54 1823.81 1200.26 1828.09 1195.99 1833.36 1195.99 1838.63 1195.99 1842.9 1200.27 1842.9 1205.54Z" fill="#3F3D56" transform="matrix(1.01984 0 0 1 287 0.306924)"/><path d="M1469.73 989.063C1469.73 1008.25 1454.18 1023.8 1434.99 1023.8 1415.81 1023.8 1400.25 1008.25 1400.25 989.063 1400.25 969.878 1415.81 954.325 1434.99 954.325 1454.18 954.325 1469.73 969.878 1469.73 989.063Z" fill="#468871" transform="matrix(1.01984 0 0 1 287 0.306924)"/><path d="M1438.34 1093.7 1431.23 1093.7 1434.47 983.831 1438.34 1093.7Z" fill="#3F3D56" transform="matrix(1.01984 0 0 1 287 0.306924)"/><path d="M1435.1 1004.65 1442.74 994.085 1434.99 1007.27 1434.16 1005.81 1435.1 1004.65Z" fill="#3F3D56" transform="matrix(1.01984 0 0 1 287 0.306924)"/><path d="M1434.26 1015.33 1426.62 1004.76 1434.37 1017.94 1435.2 1016.48 1434.26 1015.33Z" fill="#3F3D56" transform="matrix(1.01984 0 0 1 287 0.306924)"/><path d="M1788.39 989.063C1788.39 1008.25 1772.84 1023.8 1753.65 1023.8 1734.47 1023.8 1718.91 1008.25 1718.91 989.063 1718.91 969.878 1734.47 954.325 1753.65 954.325 1772.84 954.325 1788.39 969.878 1788.39 989.063Z" fill="#468871" transform="matrix(1.01984 0 0 1 287 0.306924)"/><path d="M1757 1093.7 1749.89 1093.7 1753.13 983.831 1757 1093.7Z" fill="#3F3D56" transform="matrix(1.01984 0 0 1 287 0.306924)"/><path d="M1753.76 1004.65 1761.4 994.085 1753.65 1007.27 1752.82 1005.81 1753.76 1004.65Z" fill="#3F3D56" transform="matrix(1.01984 0 0 1 287 0.306924)"/><path d="M1752.92 1015.33 1745.28 1004.76 1753.02 1017.94 1753.86 1016.48 1752.92 1015.33Z" fill="#3F3D56" transform="matrix(1.01984 0 0 1 287 0.306924)"/><path d="M1586.93 958.76C1586.93 987.095 1563.96 1010.07 1535.62 1010.07 1507.29 1010.07 1484.32 987.095 1484.32 958.76 1484.32 930.425 1507.29 907.454 1535.62 907.454 1563.96 907.454 1586.93 930.425 1586.93 958.76Z" fill="#468871" transform="matrix(1.01984 0 0 1 287 0.306924)"/><path d="M1540.57 1113.29 1530.06 1113.29 1534.85 951.033 1540.57 1113.29Z" fill="#3F3D56" transform="matrix(1.01984 0 0 1 287 0.306924)"/><path d="M1535.78 981.785 1547.06 966.177 1535.62 985.648 1534.39 983.485 1535.78 981.785Z" fill="#3F3D56" transform="matrix(1.01984 0 0 1 287 0.306924)"/><path d="M1534.54 997.549 1523.26 981.939 1534.7 1001.41 1535.93 999.25 1534.54 997.549Z" fill="#3F3D56" transform="matrix(1.01984 0 0 1 287 0.306924)"/><path d="M1712.05 939.162C1712.05 967.497 1689.08 990.468 1660.74 990.468 1632.41 990.468 1609.44 967.497 1609.44 939.162 1609.44 910.826 1632.41 887.856 1660.74 887.856 1689.08 887.856 1712.05 910.826 1712.05 939.162Z" fill="#468871" transform="matrix(1.01984 0 0 1 287 0.306924)"/><path d="M1665.69 1093.7 1655.18 1093.7 1659.97 931.434 1665.69 1093.7Z" fill="#3F3D56" transform="matrix(1.01984 0 0 1 287 0.306924)"/><path d="M1660.9 962.187 1672.18 946.579 1660.74 966.05 1659.51 963.887 1660.9 962.187Z" fill="#3F3D56" transform="matrix(1.01984 0 0 1 287 0.306924)"/><path d="M1659.66 977.951 1648.38 962.341 1659.81 981.814 1661.05 979.651 1659.66 977.951Z" fill="#3F3D56" transform="matrix(1.01984 0 0 1 287 0.306924)"/><path d="M1387.52 939.162C1387.52 967.497 1364.55 990.468 1336.22 990.468 1307.88 990.468 1284.91 967.497 1284.91 939.162 1284.91 910.826 1307.88 887.856 1336.22 887.856 1364.55 887.856 1387.52 910.826 1387.52 939.162Z" fill="#468871" transform="matrix(1.01984 0 0 1 287 0.306924)"/><path d="M1341.16 1093.7 1330.65 1093.7 1335.44 931.434 1341.16 1093.7Z" fill="#3F3D56" transform="matrix(1.01984 0 0 1 287 0.306924)"/><path d="M1336.37 962.187 1347.65 946.579 1336.22 966.05 1334.98 963.887 1336.37 962.187Z" fill="#3F3D56" transform="matrix(1.01984 0 0 1 287 0.306924)"/><path d="M1335.14 977.951 1323.85 962.341 1335.29 981.814 1336.53 979.651 1335.14 977.951Z" fill="#3F3D56" transform="matrix(1.01984 0 0 1 287 0.306924)"/><path d="M2081.75 1284.98 1808.67 1284.98C1808.29 1284.99 1807.92 1284.95 1807.54 1284.88 1803.61 1284.33 1800.69 1280.96 1800.69 1276.99L1800.69 1208.82C1826.38 1204.53 1852.39 1202.42 1878.44 1202.5 1975.38 1202.5 2056.47 1230.28 2076.8 1267.46 2079.87 1272.81 2081.57 1278.82 2081.75 1284.98Z" fill="#3F3D56" transform="matrix(1.01984 0 0 1 -267.041 -157.408)"/><path d="M2355.61 1261.54 2355.61 1276.99C2355.61 1281.4 2352.04 1284.98 2347.63 1284.98L2045.49 1284.98C2055.21 1277.94 2065.72 1272.06 2076.8 1267.46 2113.82 1251.59 2166.02 1241.69 2223.86 1241.69 2274.13 1241.69 2320.12 1249.14 2355.61 1261.54Z" fill="#3F3D56" transform="matrix(1.01984 0 0 1 -267.041 -157.408)"/><path d="M2113.89 157.715C2112.82 157.716 2111.78 157.979 2110.84 158.48L1561.35 450.768C1558.18 452.461 1556.98 456.397 1558.66 459.57L1768.46 853.987C1770.15 857.157 1774.09 858.361 1777.27 856.677L2326.75 564.389C2329.92 562.698 2331.12 558.761 2329.44 555.588L2119.64 161.171C2118.83 159.643 2117.45 158.502 2115.79 158.002 2115.18 157.812 2114.53 157.716 2113.89 157.715Z" fill="#E6E6E6" transform="matrix(1.01984 0 0 1 -267.041 -157.408)"/><path d="M2099.26 209.895 2248.36 490.19C2250.43 494.085 2248.96 498.924 2245.06 500.998 2245.06 500.999 2245.06 501 2245.06 501.001L1769.24 754.101C1768.9 754.284 1768.55 754.438 1768.18 754.561 1764.45 755.907 1760.29 754.304 1758.43 750.798L1609.33 470.504C1607.26 466.608 1608.73 461.769 1612.63 459.696 1612.63 459.695 1612.63 459.694 1612.63 459.693L2088.45 206.592C2092.35 204.519 2097.19 205.995 2099.26 209.891 2099.26 209.892 2099.26 209.894 2099.26 209.895Z" fill="#FFFFFF" transform="matrix(1.01984 0 0 1 -267.041 -157.408)"/><path d="M1308.1 346.68C1308.1 385.408 1276.7 416.804 1237.97 416.804 1199.25 416.804 1167.85 385.408 1167.85 346.68 1167.85 307.951 1199.25 276.556 1237.97 276.556 1276.7 276.556 1308.1 307.951 1308.1 346.68Z" fill="#FF6584" transform="matrix(1.01984 0 0 1 287 0.306924)"/><path d="M2076.86 591.909 1773.15 753.462C1772.77 753.669 1772.38 753.841 1771.97 753.976L1783.26 428.76C1783.43 422.47 1788.66 417.504 1794.95 417.668 1797.01 417.722 1799.03 418.337 1800.77 419.447L1985.99 535.138 1994.85 540.671Z" fill="#3F3D56" transform="matrix(1.01984 0 0 1 -267.041 -157.408)"/><path d="M1533.6 434.194 1429.91 489.352 1441.48 388.337 1442.31 381.061 1442.72 377.423 1451.59 382.957 1533.6 434.194Z" fill="#000000" fill-opacity="0.2" transform="matrix(1.01984 0 0 1 287 0.306924)"/><path d="M2245.97 501.957 1983.28 641.687 1994.85 540.671 1995.68 533.396 2010.76 401.755C2011.75 393.127 2022 387.169 2030.05 389.967 2030.59 390.16 2031.13 390.388 2031.64 390.65Z" fill="#3F3D56" transform="matrix(1.01984 0 0 1 -267.041 -157.408)"/><path d="M1045.85 301.548C1045.85 306.82 1041.57 311.094 1036.3 311.094 1031.03 311.094 1026.76 306.82 1026.76 301.548 1026.76 296.276 1031.03 292.002 1036.3 292.002 1041.57 292.002 1045.85 296.276 1045.85 301.548Z" fill="#3F3D56" transform="matrix(1.01984 0 0 1 287 0.306924)"/><path d="M1572.86 21.2151C1572.86 26.4871 1568.59 30.7609 1563.32 30.7609 1558.04 30.7609 1553.77 26.4871 1553.77 21.2151 1553.77 15.943 1558.04 11.6692 1563.32 11.6692 1568.59 11.6692 1572.86 15.943 1572.86 21.2151Z" fill="#3F3D56" transform="matrix(1.01984 0 0 1 287 0.306924)"/><path d="M1246.68 679.11C1246.68 684.382 1242.41 688.656 1237.14 688.656 1231.87 688.656 1227.59 684.382 1227.59 679.11 1227.59 673.838 1231.87 669.564 1237.14 669.564 1242.41 669.564 1246.68 673.838 1246.68 679.11Z" fill="#3F3D56" transform="matrix(1.01984 0 0 1 287 0.306924)"/><path d="M1773.7 398.777C1773.7 404.049 1769.42 408.323 1764.15 408.323 1758.88 408.323 1754.61 404.049 1754.61 398.777 1754.61 393.505 1758.88 389.231 1764.15 389.231 1769.42 389.231 1773.7 393.505 1773.7 398.777Z" fill="#3F3D56" transform="matrix(1.01984 0 0 1 287 0.306924)"/><path d="M2246.94 2046.88C2250.41 2047.8 2253.97 2045.73 2254.9 2042.26L2369.75 1610.53C2370.67 1607.06 2368.6 1603.5 2365.13 1602.57L1763.66 1442.57C1760.18 1441.65 1756.62 1443.71 1755.69 1447.19L1640.85 1878.92C1639.92 1882.39 1641.99 1885.95 1645.46 1886.88 1645.46 1886.88 1645.46 1886.88 1645.46 1886.88Z" fill="#E6E6E6" transform="matrix(1.01984 0 0 1 -267.041 -157.408)"/><path d="M2321.64 1632.35 2240.02 1939.17C2238.89 1943.43 2234.51 1945.97 2230.25 1944.84L1709.41 1806.28C1709.04 1806.19 1708.69 1806.06 1708.34 1805.9 1704.69 1804.35 1702.73 1800.35 1703.74 1796.51L1785.36 1489.69C1786.5 1485.43 1790.87 1482.89 1795.13 1484.03L2315.98 1622.58C2320.24 1623.71 2322.77 1628.09 2321.64 1632.35Z" fill="#FFFFFF" transform="matrix(1.01984 0 0 1 -267.041 -157.408)"/><path d="M2251.61 1895.59 2240.02 1939.17C2238.89 1943.43 2234.51 1945.97 2230.25 1944.84L1709.41 1806.28C1709.04 1806.19 1708.69 1806.06 1708.34 1805.9 1704.69 1804.35 1702.73 1800.35 1703.74 1796.51L1715.34 1752.93Z" fill="#3F3D56" transform="matrix(1.01984 0 0 1 -267.041 -157.408)"/><path d="M1938.39 1853.43 2024.24 1853.43 2024.24 1863.24 1938.39 1863.24Z" fill="#CCCCCC" transform="matrix(0.98431 0.256748 -0.261842 0.96516 287.372 -603.73)"/><path d="M1747.57 1802.67 1833.42 1802.67 1833.42 1812.48 1747.57 1812.48Z" fill="#CCCCCC" transform="matrix(0.98431 0.256748 -0.261842 0.96516 267.548 -556.44)"/><path d="M2129.21 1904.19 2215.07 1904.19 2215.07 1914 2129.21 1914Z" fill="#CCCCCC" transform="matrix(0.98431 0.256748 -0.261842 0.96516 307.196 -651.02)"/><path d="M1237.5 1303.48C1237.5 1308.75 1233.22 1313.02 1227.95 1313.02 1222.68 1313.02 1218.41 1308.75 1218.41 1303.48 1218.41 1298.21 1222.68 1293.93 1227.95 1293.93 1233.22 1293.93 1237.5 1298.21 1237.5 1303.48Z" fill="#3F3D56" transform="matrix(1.01984 0 0 1 287 0.306924)"/><path d="M1814.37 1456.93C1814.37 1462.21 1810.1 1466.48 1804.82 1466.48 1799.55 1466.48 1795.28 1462.21 1795.28 1456.93 1795.28 1451.66 1799.55 1447.39 1804.82 1447.39 1810.1 1447.39 1814.37 1451.66 1814.37 1456.93Z" fill="#3F3D56" transform="matrix(1.01984 0 0 1 287 0.306924)"/><path d="M1127.56 1716.76C1127.56 1722.03 1123.29 1726.3 1118.01 1726.3 1112.74 1726.3 1108.47 1722.03 1108.47 1716.76 1108.47 1711.49 1112.74 1707.21 1118.01 1707.21 1123.29 1707.21 1127.56 1711.49 1127.56 1716.76Z" fill="#3F3D56" transform="matrix(1.01984 0 0 1 287 0.306924)"/><path d="M1704.43 1870.22C1704.43 1875.49 1700.16 1879.76 1694.88 1879.76 1689.61 1879.76 1685.34 1875.49 1685.34 1870.22 1685.34 1864.94 1689.61 1860.67 1694.88 1860.67 1700.16 1860.67 1704.43 1864.94 1704.43 1870.22Z" fill="#3F3D56" transform="matrix(1.01984 0 0 1 287 0.306924)"/><path d="M2126.41 1876.79 2174.12 1876.79 2174.12 1884.36 2126.41 1884.36Z" fill="#3F3D56" transform="matrix(-0.984165 -0.257262 0.262366 -0.965018 3545.92 4088.75)"/><path d="M1792.06 1781.46 1800.98 1786.18 2162.05 1882.44 2167.31 1875.74C2176.42 1864.27 2182.17 1850.49 2183.91 1835.94 2185.13 1825.08 2183.99 1813.66 2176.34 1806.79L2188.71 1695.79 1989.02 1642.29 1895.14 1684.07C1895.14 1684.07 1858.85 1673.72 1832.48 1693.11 1822.89 1700.38 1815.72 1710.36 1811.89 1721.77L1807.7 1734.39Z" fill="#468871" transform="matrix(1.01984 0 0 1 -267.041 -157.408)"/><path d="M1374.73 1643.06C1374.73 1668.54 1354.07 1689.2 1328.59 1689.2 1303.11 1689.2 1282.45 1668.54 1282.45 1643.06 1282.45 1617.57 1303.11 1596.91 1328.59 1596.91 1354.07 1596.91 1374.73 1617.57 1374.73 1643.06Z" fill="#3F3D56" transform="matrix(1.01984 0 0 1 287 0.306924)"/><path d="M1352.88 1643.06C1352.88 1656.47 1342 1667.34 1328.59 1667.34 1315.18 1667.34 1304.31 1656.47 1304.31 1643.06 1304.31 1629.64 1315.18 1618.77 1328.59 1618.77 1342 1618.77 1352.88 1629.64 1352.88 1643.06Z" fill="#CCCCCC" transform="matrix(1.01984 0 0 1 287 0.306924)"/><path d="M1594.73 1701.71C1594.73 1727.19 1574.08 1747.85 1548.59 1747.85 1523.11 1747.85 1502.45 1727.19 1502.45 1701.71 1502.45 1676.22 1523.11 1655.56 1548.59 1655.56 1574.08 1655.56 1594.73 1676.22 1594.73 1701.71Z" fill="#3F3D56" transform="matrix(1.01984 0 0 1 287 0.306924)"/><path d="M1572.88 1701.71C1572.88 1715.12 1562 1725.99 1548.59 1725.99 1535.18 1725.99 1524.31 1715.12 1524.31 1701.71 1524.31 1688.29 1535.18 1677.42 1548.59 1677.42 1562 1677.42 1572.88 1688.29 1572.88 1701.71Z" fill="#CCCCCC" transform="matrix(1.01984 0 0 1 287 0.306924)"/><path d="M1384.52 1527.24 1492.38 1555.98 1505.55 1559.48 1527.78 1565.41 1528.21 1563.79 1533.42 1544.25 1539.28 1522.3 1524.49 1518.36 1511.32 1514.85 1488 1508.63 1474.84 1505.12 1447.91 1497.94 1384.52 1527.24Z" fill="#FFFFFF" transform="matrix(1.01984 0 0 1 287 0.306924)"/><path d="M1545.32 1570.1 1602.32 1585.29 1605.31 1574.11 1610.51 1554.56 1613.82 1542.18 1605.48 1539.96 1592.31 1536.44 1556.81 1526.98 1545.32 1570.1Z" fill="#FFFFFF" transform="matrix(1.01984 0 0 1 287 0.306924)"/><path d="M2055.8 1756.32 2063.37 1756.32 2063.37 1770.71 2055.8 1770.71Z" fill="#3F3D56" transform="matrix(-0.984165 -0.257262 0.262366 -0.965018 3395.02 3835.54)"/><path d="M1944.59 1702.04 1952.16 1702.04 1952.16 1716.43 1944.59 1716.43Z" fill="#3F3D56" transform="matrix(-0.262354 0.964972 -0.984118 -0.25725 3910.61 109.137)"/><path d="M1937.92 1675.93 1938.76 1675.93C1947.5 1675.93 1954.59 1683.02 1954.59 1691.76L1954.59 1691.76C1954.59 1700.51 1947.5 1707.59 1938.76 1707.59L1937.92 1707.59 1937.92 1707.59 1937.92 1675.93 1937.92 1675.93Z" fill="#3F3D56" transform="matrix(-0.984165 -0.257262 0.262366 -0.965018 3186.86 3665.47)"/><path d="M1807.7 1734.39C1820.29 1739.25 1834.43 1732.98 1839.29 1720.39 1843 1710.77 1840.28 1699.85 1832.48 1693.11 1822.89 1700.38 1815.72 1710.36 1811.89 1721.77Z" fill="#3F3D56" transform="matrix(1.01984 0 0 1 -267.041 -157.408)"/><path d="M1511.32 1514.85 1528.21 1563.79 1533.42 1544.25 1524.49 1518.36 1511.32 1514.85Z" fill="#F2F2F2" transform="matrix(1.01984 0 0 1 287 0.306924)"/><path d="M1592.31 1536.44 1605.31 1574.11 1610.51 1554.56 1605.48 1539.96 1592.31 1536.44Z" fill="#F2F2F2" transform="matrix(1.01984 0 0 1 287 0.306924)"/><path d="M1474.84 1505.12 1492.38 1555.98 1505.55 1559.48 1488 1508.63 1474.84 1505.12Z" fill="#F2F2F2" transform="matrix(1.01984 0 0 1 287 0.306924)"/><path d="M127.43 730.807C127.43 747.043 114.268 760.204 98.0327 760.204 81.7968 760.204 68.6351 747.043 68.6351 730.807 68.6351 714.571 81.7968 701.409 98.0327 701.409 114.268 701.409 127.43 714.571 127.43 730.807Z" fill="#468871" transform="matrix(1.01984 0 0 1 287 0.306924)"/><path d="M653.704 861.899C665.722 872.783 666.642 891.349 655.759 903.368 647.101 912.929 633.216 915.719 621.537 910.244 633.527 921.17 652.104 920.308 663.031 908.317 673.957 896.327 673.094 877.75 661.104 866.823 658.902 864.816 656.406 863.156 653.704 861.899Z" fill="#000000" fill-opacity="0.2" transform="matrix(1.01984 0 0 1 -267.041 -157.408)"/><path d="M926.064 762.654C926.064 778.89 893.708 792.052 853.795 792.052 813.882 792.052 781.526 778.89 781.526 762.654 781.526 746.418 813.882 733.257 853.795 733.257 893.708 733.257 926.064 746.418 926.064 762.654Z" fill="#3F3D56" transform="matrix(1.01984 0 0 1 287 0.306924)"/><path d="M1397.06 890.971C1394.58 890.971 1392.13 891.022 1389.71 891.122 1426.17 892.62 1454.63 905.142 1454.63 920.369 1454.63 935.596 1426.17 948.118 1389.71 949.616 1392.12 949.715 1394.57 949.766 1397.06 949.767 1436.97 949.767 1469.33 936.605 1469.33 920.369 1469.33 904.133 1436.97 890.971 1397.06 890.971Z" fill="#000000" fill-opacity="0.2" transform="matrix(1.01984 0 0 1 -267.041 -157.408)"/><path d="M1491.37 920.369 1128.8 920.369 1128.8 881.172C1128.8 877.113 1125.51 873.823 1121.46 873.823L920.572 873.823C916.513 873.823 913.222 877.113 913.222 881.172L913.222 920.369 702.54 920.369 702.54 895.871C702.54 891.812 699.25 888.522 695.191 888.522L587.4 888.522C583.341 888.522 580.05 891.812 580.05 895.871L580.05 920.369 550.653 920.369C546.599 920.364 543.309 923.645 543.303 927.699 543.303 927.705 543.303 927.712 543.303 927.718L543.303 1410.33C543.298 1414.38 546.58 1417.67 550.633 1417.68 550.64 1417.68 550.646 1417.68 550.653 1417.68L1491.37 1417.68C1495.43 1417.68 1498.72 1414.4 1498.72 1410.35 1498.72 1410.34 1498.72 1410.33 1498.72 1410.33L1498.72 927.718C1498.73 923.665 1495.45 920.374 1491.39 920.369 1491.39 920.369 1491.38 920.369 1491.37 920.369Z" fill="#3F3D56" transform="matrix(1.01984 0 0 1 -267.041 -157.408)"/><path d="M1491.33 1381.69 550.612 1381.69C546.558 1381.69 543.268 1378.41 543.263 1374.36 543.263 1374.35 543.263 1374.34 543.263 1374.34L543.263 1408.63C543.257 1412.69 546.539 1415.98 550.592 1415.98 550.599 1415.98 550.605 1415.98 550.612 1415.98L1491.33 1415.98C1495.39 1415.99 1498.68 1412.71 1498.68 1408.65 1498.68 1408.65 1498.68 1408.64 1498.68 1408.63L1498.68 1374.34C1498.69 1378.39 1495.41 1381.68 1491.35 1381.69 1491.35 1381.69 1491.34 1381.69 1491.33 1381.69Z" fill="#000000" fill-opacity="0.2" transform="matrix(1.01984 0 0 1 -267.041 -157.408)"/><path d="M0.0408381 988.035 955.461 988.035 955.461 1081.13 0.04082 1081.13Z" fill="#000000" fill-opacity="0.2" transform="matrix(1.01984 0 0 1 287 0.306924)"/><path d="M0.0408381 941.489 955.461 941.489 955.461 1034.58 0.04082 1034.58Z" fill="#000000" fill-opacity="0.2" transform="matrix(1.01984 0 0 1 287 0.306924)"/><path d="M0.0408381 963.537 955.461 963.537 955.461 1056.63 0.04082 1056.63Z" fill="#468871" transform="matrix(1.01984 0 0 1 287 0.306924)"/><path d="M663.935 1010.08C663.935 1112.91 580.578 1196.27 477.751 1196.27 374.924 1196.27 291.566 1112.91 291.566 1010.08 291.566 907.257 374.924 823.899 477.751 823.899 580.578 823.899 663.935 907.257 663.935 1010.08Z" fill="#468871" transform="matrix(1.01984 0 0 1 287 0.306924)"/><path d="M1164.43 1049.07C1216.47 1137.75 1186.78 1251.82 1098.11 1303.87 1019.35 1350.1 918.686 1332.37 860.453 1262.03 912.493 1350.71 1026.57 1380.41 1115.25 1328.37 1203.93 1276.33 1233.63 1162.25 1181.59 1073.57 1176.54 1064.96 1170.8 1056.77 1164.43 1049.07Z" fill="#000000" fill-opacity="0.2" transform="matrix(1.01984 0 0 1 -267.041 -157.408)"/><path d="M616.307 1010.08C616.307 1086.61 554.273 1148.64 477.751 1148.64 401.229 1148.64 339.195 1086.61 339.195 1010.08 339.195 933.561 401.229 871.528 477.751 871.528 554.273 871.528 616.307 933.561 616.307 1010.08Z" fill="#3F3D56" transform="matrix(1.01984 0 0 1 287 0.306924)"/><path d="M1128.8 1167.8C1128.83 1182.43 1125.85 1196.91 1120.06 1210.35 1116.96 1217.6 1113.05 1224.48 1108.42 1230.86 1073.61 1279.15 1006.25 1290.08 957.956 1255.27 909.664 1220.46 898.734 1153.09 933.543 1104.8 940.316 1095.41 948.559 1087.16 957.956 1080.39 964.335 1075.76 971.213 1071.85 978.461 1068.75 1033.17 1045.26 1096.56 1070.56 1120.06 1125.27 1125.83 1138.7 1128.8 1153.17 1128.8 1167.8Z" fill="#FFFFFF" transform="matrix(1.01984 0 0 1 -267.041 -157.408)"/><path d="M1127.65 1152.1C1123.63 1124.69 1109.2 1099.89 1087.36 1082.85 1106.58 1112.94 1109.65 1150.6 1095.56 1183.4 1092.46 1190.65 1088.56 1197.53 1083.92 1203.91 1049.13 1252.17 981.808 1263.09 933.544 1228.31 932.397 1227.48 931.266 1226.63 930.152 1225.76 962.124 1275.94 1028.72 1290.7 1078.91 1258.73 1090.42 1251.39 1100.44 1241.93 1108.42 1230.86 1113.05 1224.48 1116.96 1217.6 1120.06 1210.35 1127.93 1192.01 1130.56 1171.84 1127.65 1152.1Z" fill="#000000" fill-opacity="0.2" transform="matrix(1.01984 0 0 1 -267.041 -157.408)"/></g></svg>