<svg width="1890" height="1890" xmlns="http://www.w3.org/2000/svg" xmlns:xlink="http://www.w3.org/1999/xlink" overflow="hidden"><defs><clipPath id="clip0"><rect x="155" y="0" width="1890" height="1890"/></clipPath></defs><g clip-path="url(#clip0)" transform="translate(-155 0)"><path d="M1759.43 362.052C1544.99 63.6424 1091.99-57.4053 646.47 72.9659 410.94 141.889 183.845 279.988 71.3021 547.39-129.88 1025.4 292.527 1178.07 568.736 1226.72 702.295 1250.25 828.086 1289.77 943.034 1343.58 1149.84 1440.38 1515.89 1526.16 1791.92 1122.93 1991.99 830.657 1902.28 560.822 1759.43 362.052Z" fill="#F2F2F2" transform="matrix(1 0 0 1.34668 136.51 -28.136)"/><path d="M516.156 421.09C515.556 416.348 514.343 411.703 512.547 407.273 512.084 405.579 510.93 404.158 509.367 403.357 508.334 403.088 507.251 403.076 506.212 403.322L490.014 405.8C488.658 405.862 487.36 406.366 486.318 407.236 484.208 409.455 486.286 413.028 486.221 416.089 486.148 419.531 483.09 422.325 479.774 423.249 476.388 423.933 472.896 423.89 469.529 423.122L446.879 419.602C453.55 417.472 459.487 413.51 464.014 408.168 466.995 404.637 468.58 398.044 464.273 396.372 462.993 396.021 461.658 395.914 460.339 396.056 450.077 396.136 442.001 387.568 432.394 383.959 419.781 379.528 405.749 383.711 397.621 394.325L409.687 394.907C410.822 394.844 411.947 395.145 412.901 395.764 415.545 397.937 412.257 402.11 412.63 405.512 413.114 409.932 418.983 410.876 423.407 411.323 427.831 411.77 433.443 415.364 431.315 419.268 409.08 426.927 386.453 404.297 363.101 407.082 357.191 407.788 351.61 410.109 345.84 411.569 310.591 420.488 274.15 396.692 238.141 401.732 230.136 403.096 222.269 405.171 214.632 407.932 209.731 409.541 204.619 411.28 201.058 415.012 197.497 418.744 196.142 425.126 199.515 429.029 190.217 429.794 180.857 428.905 171.87 426.401 176.82 429.153 179.874 434.387 179.833 440.051 165.315 442.418 151.182 446.728 137.813 452.863 140.308 457.012 143.222 460.895 146.51 464.449L128.131 476.256C134.34 477.821 137.551 486.288 133.94 491.576 140.378 488.712 144.368 481.302 151.253 479.8 155.763 478.816 160.353 480.661 164.632 482.394 168.911 484.127 173.613 485.808 178.043 484.507 182.472 483.206 185.74 477.463 182.925 473.803 201.858 468.279 221.425 465.222 241.14 464.708 242.661 464.517 244.204 464.81 245.549 465.545 248.116 467.326 247.44 471.171 247.302 474.292 247.164 477.413 249.596 481.514 252.385 480.107 249.104 482.953 251.909 488.309 255.057 491.301 258.205 494.293 261.999 498.422 260.072 502.314 259.569 503.33 258.716 504.143 258.232 505.168 256.803 508.193 259.072 511.721 261.747 513.73 264.422 515.739 267.7 517.144 269.558 519.926 271.417 522.708 270.573 527.578 267.249 527.967L257.803 515.974C254.576 519.32 252.364 523.513 251.422 528.066 261.439 536.254 262.946 552.921 254.56 562.773 250.274 567.807 244.18 570.867 238.861 574.794 233.543 578.721 228.621 584.313 228.634 590.924 228.657 602.346 227.724 612.958 232.004 623.548 239.897 643.075 249.01 662.087 259.288 680.47 261.987 685.298 265.475 690.589 270.943 691.42 264.033 674.597 257.812 657.513 252.281 640.167 255.884 640.181 260.047 640.467 262.159 643.385 263.907 645.802 263.532 649.088 264.075 652.021 264.766 654.863 265.919 657.572 267.487 660.041L300.485 718.822C303.221 723.694 306.359 728.925 311.587 730.898 314.929 732.16 318.797 731.922 321.873 733.739 324.285 735.162 325.909 737.69 328.368 739.031 335.319 742.823 344.985 735.55 351.482 740.078 353.339 741.372 354.521 743.429 356.232 744.911 362.232 750.107 372.074 746.631 379.001 750.507 383.464 753.005 385.778 758.001 388.159 762.528 394.122 773.869 403.772 784.979 416.554 785.882 420.568 786.166 424.669 785.404 428.594 786.297 432.518 787.19 436.381 790.615 435.751 794.591 434.672 801.406 438.039 808.868 437.134 815.709 435.487 828.169 417.813 833.645 416.295 846.121 415.962 848.853 416.483 851.673 415.832 854.347 415.035 857.624 412.574 860.292 411.699 863.55 410.042 869.723 414.465 875.866 419.323 880.019 424.182 884.172 429.977 887.754 432.633 893.567 435.441 899.712 434.062 906.877 434.975 913.571 436.968 928.185 449.59 939.018 462.58 946.003 466.538 948.132 470.788 950.192 473.349 953.884 476.693 958.703 476.36 965.056 477.476 970.814 480.21 984.915 492.081 996.534 492.418 1010.89 492.658 1021.1 486.984 1030.36 483.595 1039.99 477.165 1058.66 479.188 1079.21 489.136 1096.27 491.672 1100.55 494.704 1104.59 496.497 1109.23 499.698 1117.51 498.66 1126.92 501.611 1135.3 505.512 1146.37 516.232 1155.51 515.206 1167.21 520.073 1177.32 530.821 1182.28 541.628 1185.29L560.997 1190.68C564.705 1191.71 568.581 1192.75 572.357 1192.01 576.133 1191.26 579.737 1188.12 579.64 1184.27 570.142 1182.13 560.339 1179.85 552.509 1174.07 544.68 1168.28 539.316 1157.97 542.287 1148.7 543.664 1144.4 546.595 1139.44 543.809 1135.88 542.214 1133.85 539.296 1133.32 537.497 1131.46 534.691 1128.57 535.655 1123.7 537.672 1120.21 539.69 1116.72 542.606 1113.6 543.42 1109.65 544.262 1105.13 542.202 1100.56 538.256 1098.19 541.848 1096.84 545.114 1094.74 547.843 1092.04 550.364 1089.16 551.529 1084.72 549.545 1081.45 555.435 1082.2 562.388 1082.56 566.254 1078.06 569.341 1074.46 569.129 1069.08 567.909 1064.5 566.689 1059.92 564.627 1055.47 564.563 1050.73 578.149 1051.37 591.765 1050.91 605.276 1049.35 603.322 1042.77 598.882 1037.21 592.898 1033.85 599.017 1032.81 604.591 1025.49 606.525 1019.59 608.458 1013.69 607.965 1007.27 606.77 1001.18 606.311 999.61 606.248 997.953 606.587 996.354 607.276 994.159 609.433 992.818 611.429 991.672L641.802 974.229C643.614 973.321 645.257 972.108 646.659 970.643 649.841 966.905 649.37 961.263 647.74 956.632 646.111 952.002 643.501 947.647 642.873 942.778 640.996 928.218 656.583 917.77 661.844 904.064 663.908 898.685 664.329 892.838 664.728 887.09 665.157 880.917 665.189 873.746 660.449 869.768 655.906 865.955 648.806 866.806 644.052 863.259 639.693 860.006 638.189 853.69 633.427 851.064 629.103 848.678 623.68 850.196 618.871 849.074 610.402 847.098 605.073 837.338 596.424 836.434 591.544 835.924 586.022 838.31 582.022 835.468 578.498 832.964 578.357 827.931 577.686 823.66 575.278 810.065 564.657 799.41 551.07 796.958 546.039 796.151 540.562 796.458 536.282 793.693 531.948 790.893 529.961 785.651 526.556 781.774 521.069 775.525 512.427 773.305 504.332 771.402L471.404 763.661C465.559 762.287 458.024 761.558 454.887 766.678 453.959 768.628 453.301 770.696 452.934 772.823 450.522 780.72 443.294 786.161 435.038 786.293 432.278 781.586 427.807 778.127 422.558 776.637 419.219 775.707 415.645 775.603 412.461 774.234 405.421 770.798 402.5 762.306 405.936 755.266 406.053 755.027 406.176 754.791 406.306 754.559 410.209 747.61 408.973 738.908 403.289 733.321 397.689 728.294 389.589 727.079 382.081 727.583 380.114 723.292 383.402 718.45 386.946 715.332 390.489 712.214 394.792 709.148 395.563 704.491 396.777 697.166 387.431 691.603 380.335 693.787 373.238 695.971 368.709 702.864 365.715 709.658 363.997 713.557 362.537 717.662 359.827 720.949 357.117 724.236 352.754 726.589 348.626 725.534 342.783 724.041 340.527 717.099 339.233 711.208 337.498 703.305 335.753 695.292 336.117 687.208 336.48 679.125 339.205 670.825 345.166 665.352 354.879 656.435 369.78 657.309 382.889 658.732 379.792 655.242 380.557 649.362 383.871 646.077 387.422 642.922 392.302 641.723 396.911 642.873 400.861 643.696 404.42 645.823 407.014 648.914 410.739 653.455 411.798 659.588 414.614 664.743 417.43 669.898 423.761 674.295 428.943 671.529 433.419 669.14 434.13 662.934 433.016 657.984 431.902 653.034 429.536 648.221 429.939 643.163 430.709 633.513 440.713 627.704 449.54 623.73 458.368 619.755 468.476 614.41 469.875 604.831 469.923 602.955 470.276 601.1 470.922 599.339 471.901 597.783 473.262 596.503 474.875 595.622 500.638 578.595 526.831 561.361 556.277 552.058 557.809 551.574 557.989 552.112 559.55 551.732 561.735 550.47 560.287 546.976 558.192 545.569 556.097 544.161 553.297 543.082 552.766 540.615 552.375 538.801 553.444 537.02 553.721 535.186 554.403 530.678 549.011 526.517 544.823 528.319 542.458 525.186 547.138 521.546 550.923 520.504 562.287 517.377 573.953 515.471 585.722 514.82 587.08 514.604 588.471 514.84 589.681 515.493 591.658 516.862 591.405 520.003 590.005 521.957 588.604 523.912 586.425 525.139 584.679 526.792 580.791 530.58 579.337 536.218 580.908 541.413 587.052 544.539 593.732 547.756 600.536 546.655 607.341 545.554 613.38 537.908 610.182 531.802 607.203 526.116 598.257 524.833 596.718 518.602 594.917 511.305 605.246 504.816 602.919 497.669 601.9 494.539 598.78 492.697 596.386 490.437 590.6 484.765 588.894 476.12 592.092 468.675 584.18 470.067 576.084 467.534 570.377 461.88 565.183 456.638 561.039 448.369 553.664 448.604 546.895 448.819 541.066 456.715 534.737 454.306 533.18 453.714 531.538 452.507 530.03 453.214 529.028 453.865 528.381 454.939 528.274 456.129 526.666 463.818 529.432 472.579 525.242 479.223 520.681 486.454 510.133 487.456 504.604 493.976 501.603 497.516 500.44 502.285 497.682 506.016 494.923 509.748 489.068 512.12 485.758 508.869 489.108 501.98 487.256 493.691 481.293 488.884 478.219 486.879 474.906 485.267 471.431 484.087 467.548 482.444 463.854 480.385 460.414 477.947 458.691 476.908 457.29 475.409 456.37 473.62 455.641 471.379 455.739 468.951 456.646 466.776 460.068 456.967 468.641 449.861 478.914 448.319 483.322 447.72 488.452 447.931 491.369 444.572 492.913 442.795 493.722 440.109 495.963 439.387 497.396 439.099 498.884 439.282 500.204 439.909L516.656 445.7C518.492 446.529 520.512 446.863 522.517 446.67 524.579 446.392 526.077 444.57 525.953 442.494 525.427 439.762 521.223 438.45 521.606 435.695 521.82 434.802 522.3 433.995 522.983 433.38 535.004 420.585 552.113 413.828 569.634 414.958 571.71 418.368 568.426 422.407 565.693 425.318 562.961 428.23 560.765 433.432 564.07 435.673 565.424 436.364 566.93 436.703 568.45 436.659 572.501 437.207 576.437 438.401 580.11 440.196 585.795 442.67 591.371 445.377 596.838 448.317 596.355 444.712 595.894 440.915 597.26 437.544 598.626 434.174 602.509 431.53 605.901 432.843 609.17 434.108 610.846 438.436 614.329 438.832 618.974 439.361 620.807 432.499 618.866 428.245 616.926 423.991 613.085 420.43 612.764 415.765 612.548 412.619 613.745 408.716 611.232 406.81 610.337 406.238 609.322 405.882 608.266 405.771L545.504 394.221C541.777 393.535 536.393 394.061 536.227 397.847 536.135 399.96 538.023 402.051 537.187 403.994 536.294 406.068 533.363 405.878 531.228 406.611 527.915 407.75 526.253 411.683 526.571 415.172 527.153 418.638 528.496 421.933 530.502 424.819 526.419 423.112 520.238 422.798 516.156 421.09Z" fill="#3F3D56" transform="matrix(1 0 0 1.34668 136.51 -28.136)"/><path d="M466.078 367.814C457.971 365.131 449.051 367.802 443.754 374.499 442.72 375.86 441.852 377.736 442.717 379.209 443.958 381.321 447.118 380.487 449.448 379.732 452.873 378.508 456.601 378.419 460.08 379.478 462.268 380.229 464.225 381.557 466.423 382.28 468.603 383.191 471.108 382.825 472.936 381.328 474.444 379.79 474.538 377.398 474.541 375.244 474.753 373.784 474.295 372.307 473.294 371.223 472.415 370.714 471.426 370.421 470.411 370.37 468.137 369.949 466.082 368.748 464.599 366.974" fill="#3F3D56" transform="matrix(1 0 0 1.34668 136.51 -28.136)"/><path d="M488.709 361.513C485.858 361.357 483.421 363.543 483.265 366.394 483.221 367.218 483.374 368.041 483.712 368.794 486.432 369.536 489.274 369.721 492.067 369.339 494.916 368.897 497.219 366.785 497.907 363.985 494.618 364.583 491.224 363.935 488.388 362.167" fill="#3F3D56" transform="matrix(1 0 0 1.34668 136.51 -28.136)"/><path d="M564.637 350.99C557.234 352.564 550.042 355.007 543.212 358.268 549.823 360.809 553.996 367.372 553.493 374.436 553.204 375.757 553.238 377.128 553.591 378.433 554.378 380.341 556.658 381.057 558.662 381.546 562.264 382.642 566.025 383.122 569.786 382.966 573.608 382.766 577.071 380.65 578.993 377.34 579.538 375.793 580.178 374.282 580.908 372.813 585.713 365.496 599.987 374.344 605.146 367.271 606.963 364.78 606.797 361.029 609.166 359.055 610.391 358.195 611.812 357.653 613.299 357.478 623.673 355.417 634.152 353.924 644.69 353.007 649.683 352.573 656.19 350.78 656.232 345.768 637.426 342.075 617.926 344.698 600.765 353.23 594.582 356.327 586.404 362.842 580.448 358.736 578.218 357.199 578.329 353.059 575.26 351.33 572.122 349.563 567.968 350.282 564.637 350.99Z" fill="#3F3D56" transform="matrix(1 0 0 1.34668 136.51 -28.136)"/><path d="M626.138 362.491 634.966 364.187C628.654 363.907 623.311 368.797 623.032 375.109 623.01 375.601 623.02 376.093 623.062 376.584 631.329 379.346 640.341 376.658 649.05 377.025 657.758 377.392 667.89 383.613 666.404 392.201 665.954 394.798 664.454 397.393 665.234 399.91 665.781 401.675 667.337 402.927 668.215 404.552 670.045 407.938 668.583 412.221 666.272 415.299 663.96 418.377 660.854 420.833 658.826 424.104 653.78 432.24 656.647 442.759 659.652 451.848 660.521 455.282 662.126 458.487 664.355 461.24 668.808 465.974 676.064 466.386 682.563 466.481 687.293 466.55 692.711 466.316 695.702 462.652 699.607 457.867 696.876 450.403 699.447 444.788 701.782 439.688 707.732 437.5 713.121 435.948 722.996 433.106 733.059 430.689 742.394 426.395 753.986 421.063 764.819 412.754 777.56 412.068 781.134 411.875 784.797 412.297 788.24 411.318 791.684 410.339 794.954 407.362 794.693 403.792 794.471 400.741 791.89 398.501 789.873 396.202 787.857 393.902 786.273 390.366 788.127 387.933L821.522 381.696C819.155 375.244 817.311 366.748 822.75 362.549 824.713 361.034 827.341 360.428 829.012 358.596 831.86 355.474 830.428 350.097 827.14 347.442 823.852 344.787 819.407 344.17 815.196 343.821 800.552 342.604 785.825 343.408 771.154 344.212 742.474 345.784 713.794 347.356 685.115 348.928 679.341 349.245 672.675 348.761 667.38 350.731 662.897 352.399 659.71 355.46 654.583 356.535 645.119 358.52 634.703 357.177 626.138 362.491Z" fill="#3F3D56" transform="matrix(1 0 0 1.34668 136.51 -28.136)"/><path d="M784.286 432.269C783.387 432.126 782.467 432.335 781.717 432.851 781.221 433.397 780.926 434.096 780.88 434.833 780.31 438.083 780.989 441.428 782.781 444.198 784.64 446.966 787.854 448.507 791.176 448.223 795.151 447.716 798.081 444.325 801.735 442.671 807.367 440.122 831.287 436.15 814.74 427.211 809.038 424.13 805.354 426.85 800.86 428.879 795.746 431.494 790.016 432.667 784.286 432.269Z" fill="#3F3D56" transform="matrix(1 0 0 1.34668 136.51 -28.136)"/><path d="M929.211 357.444C927.279 358.233 925.663 359.64 924.615 361.445 923.612 363.349 924.277 365.704 926.128 366.801 926.85 367.062 927.615 367.184 928.382 367.158L936.238 367.393C939.576 367.493 943.744 368.203 944.641 371.419 945.307 373.807 943.817 376.876 945.615 378.583 946.387 379.18 947.315 379.542 948.287 379.625 950.875 380.29 953.578 380.377 956.203 379.881 961.919 378.347 958.915 374.859 960.716 371.752 963.47 366.999 962.993 369.877 967.847 367.153 971.431 365.141 976.063 361.492 973.071 356.364 967.869 347.448 936.888 353.614 929.211 357.444Z" fill="#3F3D56" transform="matrix(1 0 0 1.34668 136.51 -28.136)"/><path d="M1084.27 352.961 1079.71 353.57C1069.42 354.943 1059.07 356.328 1049.17 359.417 1053.45 361.113 1057.95 362.217 1062.54 362.699 1065.07 362.823 1067.57 363.179 1070.03 363.764 1074.41 365.067 1078.82 368.431 1083.05 366.708 1085.67 365.639 1086.52 362.91 1088.69 361.463 1090.19 360.464 1095.88 358.848 1096.52 357.84 1101.66 349.69 1088.22 352.434 1084.27 352.961Z" fill="#3F3D56" transform="matrix(1 0 0 1.34668 136.51 -28.136)"/><path d="M1104.3 373.694C1098.2 377.101 1092.55 381.241 1087.46 386.022 1085.32 388.037 1083.13 390.543 1083.33 393.478 1083.58 397.379 1087.74 399.642 1091.34 401.166L1105.92 407.341C1107.69 404.847 1106.07 401.405 1104.24 398.955 1102.42 396.504 1100.24 393.669 1101.05 390.721 1101.97 387.356 1106.08 386.209 1109.52 385.63 1115.12 384.685 1130.24 384.761 1128.43 375.727 1126.29 365.082 1109.92 370.549 1104.3 373.694Z" fill="#3F3D56" transform="matrix(1 0 0 1.34668 136.51 -28.136)"/><path d="M1101.37 976.08C1099.98 980.099 1099.85 984.833 1102.25 988.343 1104.94 992.28 1110.33 993.748 1115 992.749 1119.65 991.513 1123.79 988.851 1126.84 985.136 1129.63 982.025 1131.93 978.502 1133.65 974.692 1136.05 968.755 1137.75 962.556 1138.7 956.222L1143.23 932.449C1144.24 927.136 1144.2 910.847 1134.43 916.154 1131.77 917.604 1125.59 929.051 1122.79 932.297 1117.76 938.148 1117.09 943.824 1114.44 950.912 1111.11 959.789 1104.44 967.188 1101.37 976.08Z" fill="#3F3D56" transform="matrix(1 0 0 1.34668 136.51 -28.136)"/><path d="M1617.12 1097.73C1613.93 1096.48 1610.83 1095.01 1607.85 1093.31 1604.86 1101.54 1603.27 1110.2 1603.14 1118.95L1625.01 1106.58C1628.3 1104.72 1632.02 1102.13 1631.95 1098.35 1632.01 1097.4 1631.55 1096.49 1630.74 1095.99 1630.26 1095.79 1629.73 1095.73 1629.21 1095.81 1625.97 1096.08 1623.01 1097.67 1619.95 1098.78 1616.9 1099.89 1613.32 1100.48 1610.51 1098.83" fill="#3F3D56" transform="matrix(1 0 0 1.34668 136.51 -28.136)"/><path d="M1732.47 1105.08C1730.07 1105.73 1727.72 1106.57 1725.45 1107.59 1720.44 1110.15 1717.02 1115 1712.51 1118.36 1708.19 1121.58 1702.99 1123.34 1697.88 1125.06 1696.38 1126.39 1697.07 1129.06 1698.7 1130.23 1700.45 1131.23 1702.46 1131.68 1704.47 1131.53 1709.78 1131.64 1715.37 1131.69 1720.01 1129.13 1722.63 1127.43 1725.08 1125.49 1727.33 1123.33 1732.76 1118.79 1739.29 1115.8 1745.74 1112.91 1748.09 1112.02 1750.27 1110.72 1752.16 1109.07 1756.22 1105.08 1756.51 1098.91 1750.65 1097.55 1745.93 1096.45 1736.97 1103.62 1732.47 1105.08Z" fill="#3F3D56" transform="matrix(1 0 0 1.34668 136.51 -28.136)"/><path d="M1783.43 1071.79C1783.96 1066.21 1781.9 1060.7 1777.85 1056.84 1777.79 1062.35 1777.62 1068.21 1774.52 1072.76 1772.32 1076.01 1768.86 1078.2 1766.44 1081.29 1764.03 1084.37 1762.95 1089.27 1765.79 1091.98 1767.6 1093.36 1769.81 1094.12 1772.08 1094.15 1777.73 1094.81 1784.26 1095.18 1788.22 1091.11 1790.38 1088.88 1791.43 1085.59 1794.06 1083.95 1795.04 1083.54 1795.92 1082.91 1796.63 1082.12 1797.71 1080.39 1795.98 1078.11 1794.04 1077.49 1792.09 1076.86 1789.95 1077.16 1787.99 1076.56 1786.04 1075.97 1784.24 1073.77 1785.25 1071.99" fill="#3F3D56" transform="matrix(1 0 0 1.34668 136.51 -28.136)"/><path d="M1692.85 869.983C1689.89 870.703 1686.83 870.884 1683.8 870.517 1678.78 869.594 1674.87 865.808 1670.81 862.703 1661.17 855.363 1649.45 851.268 1637.34 851.007 1626.32 850.799 1615.2 853.785 1604.37 851.702 1605.08 855.635 1608.45 858.585 1612.04 860.338 1615.63 862.092 1619.59 862.974 1623.2 864.692 1628.98 867.47 1633.56 872.238 1636.11 878.122 1637.27 880.835 1638 883.787 1639.76 886.155 1643.36 890.996 1650.18 892.06 1656.2 891.664 1664.05 891.147 1672.24 888.891 1679.54 891.814 1685.13 894.051 1689.12 898.939 1693.79 902.74 1698.45 906.541 1705.02 909.362 1710.37 906.619 1698.96 902.923 1691.27 892.234 1691.4 880.235 1696.65 880.719 1711.78 880.532 1710.96 871.608 1710.27 864.046 1697.36 869.167 1692.85 869.983Z" fill="#3F3D56" transform="matrix(1 0 0 1.34668 136.51 -28.136)"/><path d="M1624.15 931.514C1625.08 926.399 1630.18 921.883 1628.59 916.933 1627.5 913.51 1623.53 911.82 1619.93 911.736 1616.34 911.651 1612.81 912.722 1609.21 912.823 1606.87 912.698 1604.53 912.732 1602.19 912.922 1595.06 914.095 1590.66 921.572 1583.94 924.231 1579.85 925.847 1575.26 925.538 1571.01 926.656 1561.36 929.193 1555.25 938.312 1548.51 945.665 1537.61 957.492 1523.4 965.773 1507.74 969.437 1502.26 970.707 1496.36 971.52 1492 975.084 1486.22 979.803 1484.8 987.894 1483.51 995.241 1479.96 1015.53 1474.54 1035.45 1467.31 1054.74L1490.22 1057.66C1494.58 1058.22 1499.09 1058.76 1503.29 1057.47 1506.34 1056.32 1509.23 1054.78 1511.89 1052.89 1522.09 1046.56 1533.52 1042.44 1545.42 1040.79 1551.42 1039.97 1557.71 1039.82 1563.34 1042.05 1568.97 1044.28 1573.8 1049.34 1574.27 1055.38 1579.24 1053.83 1584.65 1055.15 1588.34 1058.8 1591.93 1062.45 1594.28 1067.14 1595.06 1072.21 1595.67 1075.34 1596.27 1079.1 1599.18 1080.41 1601.55 1081.49 1604.28 1080.33 1606.87 1080.12 1615.68 1079.42 1622.99 1089.69 1631.65 1087.92 1640.94 1086.03 1643.22 1072.12 1652.28 1069.33 1657.48 1067.73 1664.78 1069.68 1667.28 1064.84 1669.47 1060.57 1665.09 1055.65 1665.54 1050.87 1666.1 1044.99 1673.04 1042.49 1678.39 1039.98 1696.83 1031.33 1705.58 1006.51 1696.64 988.201 1691.35 977.355 1680.93 968.817 1679 956.902 1677.52 947.735 1681.14 937.045 1675.29 929.829 1672.32 926.159 1667.29 924.132 1665.52 919.753 1664.4 916.995 1664.85 913.867 1664.25 910.955 1663.65 908.042 1661.11 904.996 1658.24 905.751 1649.89 907.942 1647.22 933.732 1642.75 939.998 1635.96 949.523 1622.01 943.249 1624.15 931.514Z" fill="#3F3D56" transform="matrix(1 0 0 1.34668 136.51 -28.136)"/><path d="M1469.84 879.728C1466.99 878.928 1463.87 878.14 1461.14 879.283 1458.4 880.426 1456.81 884.44 1459 886.431 1476.17 885.762 1493.43 885.098 1510.45 887.429 1530.06 890.115 1549.46 896.767 1569.16 894.81 1557.91 891.491 1546.47 888.838 1534.91 886.863L1515.63 883.18C1510.46 882.097 1505.23 881.29 1499.98 880.761 1488.98 879.853 1480.65 882.76 1469.84 879.728Z" fill="#3F3D56" transform="matrix(1 0 0 1.34668 136.51 -28.136)"/><path d="M1487.02 819.95C1485.6 819.831 1483.83 819.728 1483.1 820.953 1482.39 822.124 1483.2 823.67 1482.82 824.983 1482.3 826.776 1479.95 827.234 1478.1 826.99 1476.25 826.746 1474.25 826.161 1472.61 827.053 1470.9 828.22 1470.17 830.373 1470.81 832.34 1471.48 834.24 1472.57 835.968 1473.99 837.398 1476.41 840.453 1479.17 843.224 1482.22 845.658 1488.12 850.012 1496.11 852.11 1499.83 858.431 1500.35 859.657 1501.16 860.741 1502.18 861.596 1503.96 862.726 1506.29 861.867 1508.21 860.989L1514.94 857.913C1516.15 857.477 1517.24 856.74 1518.09 855.773 1519.63 853.686 1518.68 850.719 1517.39 848.471 1516.1 846.223 1514.45 843.897 1514.72 841.32 1515.22 836.724 1521.13 834.966 1523.56 831.035 1526 827.072 1524.41 821.965 1524.69 817.315 1525.02 811.876 1528.44 804.802 1522.94 800.739 1518.27 797.285 1513.8 800.476 1510.45 804.289 1503.37 812.329 1500.03 821.036 1487.02 819.95Z" fill="#3F3D56" transform="matrix(1 0 0 1.34668 136.51 -28.136)"/><path d="M1527.88 738.691C1530.18 743.091 1534.97 745.717 1537.48 750.002 1540.2 754.647 1539.89 760.649 1542.83 765.151 1545.86 769.77 1551.94 772.222 1553.64 777.476 1555.49 783.212 1551.29 790.184 1554.64 795.195 1557.13 798.462 1561.79 799.092 1565.06 796.602 1565.23 796.474 1565.39 796.339 1565.55 796.198 1568.48 793.002 1568.33 788.049 1565.22 785.032 1563.23 783.224 1560.39 782.443 1558.73 780.332 1557.87 779.114 1557.3 777.716 1557.05 776.243 1556.15 771.996 1556.29 767.593 1557.47 763.414 1557.92 762.354 1558.03 761.184 1557.8 760.058 1557.05 757.893 1554.12 757.739 1552.06 756.734 1547.39 754.452 1547.5 747.855 1548.32 742.717 1547.77 746.138 1535.59 740.32 1534.31 738.383 1531.78 734.534 1533.16 727.109 1532.66 722.856 1527.18 725.493 1525.07 733.31 1527.88 738.691Z" fill="#3F3D56" transform="matrix(1 0 0 1.34668 136.51 -28.136)"/><path d="M1405.14 806.395C1402.89 803.877 1399.5 801.244 1396.49 802.762 1394.19 803.92 1393.56 807.103 1394.46 809.515 1395.56 811.858 1397.25 813.874 1399.36 815.364 1405.65 820.545 1412.41 825.222 1417.89 831.245 1427.7 842.025 1432.9 856.57 1443.57 866.5 1445.71 868.802 1448.55 870.339 1451.65 870.875 1454.76 871.164 1458.25 869.175 1458.6 866.074 1458.9 863.519 1457.12 861.233 1455.38 859.34 1451.23 854.833 1446.7 850.684 1442.79 845.974 1440.98 844.165 1439.84 841.794 1439.57 839.252 1439.55 836.716 1441.86 834.062 1444.32 834.69 1441.33 833.926 1439.11 828.948 1434.73 828.012 1431.06 827.23 1430.17 829.499 1425.81 827.628 1417.49 824.06 1410.97 812.917 1405.14 806.395Z" fill="#3F3D56" transform="matrix(1 0 0 1.34668 136.51 -28.136)"/><path d="M1600.62 561.272C1598.23 560.563 1595.89 559.725 1593.59 558.762 1587.41 556.908 1579.24 561.448 1580.06 567.844 1580.61 572.094 1584.57 574.959 1586.75 578.646 1589.99 584.113 1589.13 591.047 1587.43 597.169 1587.01 599.064 1586.21 600.857 1585.09 602.439 1583.52 604.11 1581.64 605.461 1579.55 606.421 1571.21 611.098 1563.85 617.348 1557.89 624.824 1557.24 625.514 1556.79 626.366 1556.58 627.29 1556.29 629.45 1558.46 631.023 1559.69 632.824 1562.41 636.825 1560.44 642.209 1560.71 647.044 1560.63 648.433 1561.27 649.768 1562.41 650.571 1564.05 651.406 1566 649.988 1566.89 648.374 1569.84 643.019 1567.62 634.424 1573.16 631.842 1574.21 631.354 1575.48 631.148 1576.18 630.226 1577.29 628.765 1576.22 626.6 1576.78 624.853 1577.63 622.23 1581.21 622.113 1583.97 622.229 1588.71 622.427 1593.45 621.796 1597.98 620.364 1599.75 619.942 1601.36 619.008 1602.61 617.678 1604.27 615.61 1604.13 612.668 1603.79 610.039 1602.14 596.927 1597.98 584.254 1591.56 572.704 1596.43 573.326 1601.73 573.865 1605.93 571.326 1608.28 569.905 1611.11 565.654 1609.94 562.761 1608.09 558.186 1604.76 562.037 1600.62 561.272Z" fill="#3F3D56" transform="matrix(1 0 0 1.34668 136.51 -28.136)"/><path d="M976.199 633.384C976.782 636.51 977.355 639.802 976.331 642.813 975.306 645.823 972.083 648.339 969.04 647.416 966.678 646.7 965.314 644.325 963.637 642.515 954.31 632.446 933.267 638.275 927.505 625.818 925.154 620.734 926.752 614.644 925.148 609.277 923.067 602.897 916.935 598.732 910.238 599.148 907.268 599.577 904.376 600.44 901.657 601.709 883.441 609.005 864.316 613.788 844.81 615.927 841.102 616.153 837.436 616.82 833.886 617.915 825.877 620.818 820.404 628.244 816.51 635.821 812.615 643.399 809.74 651.602 804.518 658.334 799.031 665.409 791.341 670.363 784.168 675.722 781.404 677.503 779.103 679.914 777.454 682.758 775.899 685.951 775.987 689.664 776.108 693.213L777.574 736.32C777.762 741.864 777.999 747.607 780.48 752.568 783.579 758.764 789.701 762.822 793.948 768.296 798.281 773.921 800.539 780.87 800.338 787.968 800.248 790.822 799.964 794.197 802.187 795.989 803.539 796.866 805.121 797.321 806.732 797.296L865.042 802.069C875.299 802.908 886.666 804.288 893.363 812.103 896.523 815.791 899.062 821.095 903.903 821.491 905.979 821.66 908 820.808 910.077 820.643 915.317 820.228 919.92 824.205 922.825 828.586 927.222 835.263 929.218 843.236 928.485 851.197 928.008 856.194 926.459 861.051 926.125 866.06 924.854 885.117 941.01 901.675 941.323 920.772 941.507 932.005 936.174 942.501 930.975 952.46 939.366 965.172 932.495 982.099 935.836 996.959 939.005 1011.06 950.76 1022.09 953.69 1036.24 955.031 1042.72 955.108 1050.69 960.82 1054.03 963.327 1055.25 966.106 1055.81 968.889 1055.65 985.68 1055.85 1002.28 1052.07 1017.33 1044.62 1024.39 1041.11 1031.71 1035.88 1032.95 1028.09 1033.94 1021.81 1030.76 1014.79 1034 1009.32 1037.82 1002.87 1047.6 1003.38 1053.22 998.422 1062.34 990.38 1055.23 975.042 1058.93 963.458 1062.25 953.046 1073.68 947.514 1079.35 938.169 1081.58 934.15 1083.18 929.813 1084.09 925.309 1086.69 914.543 1088.3 903.565 1088.92 892.508 1089.07 885.79 1089.57 879.084 1090.4 872.416 1096.51 834.459 1134.04 809.041 1146.22 772.576 1147.39 769.094 1147.93 764.456 1144.84 762.485 1143 761.608 1140.91 761.39 1138.94 761.867L1112.06 765.256C1108.72 765.677 1105.18 766.071 1102.11 764.684 1099.05 763.297 1096.85 759.418 1098.47 756.472 1103.04 748.203 1093.65 737.753 1089.48 729.278 1078.24 706.459 1064.86 684.76 1049.52 664.473 1048.54 663.429 1047.92 662.094 1047.77 660.669L1055.39 660.923C1052.82 651.683 1048.57 641.571 1039.59 638.191 1034.53 636.286 1028.93 636.945 1023.53 637.239 1008.07 638.084 991.5 635.75 976.199 633.384Z" fill="#3F3D56" transform="matrix(1 0 0 1.34668 136.51 -28.136)"/><path d="M1023.55 425.149C1027.59 429.445 1032.12 433.999 1037.98 434.748 1048.32 436.071 1055.75 425.38 1060.48 416.094 1060.85 421.017 1065.06 424.755 1069.99 424.527 1072.55 424.097 1074.98 423.145 1077.15 421.73 1097.63 410.536 1120.57 404.605 1143.92 404.47 1143.45 400.807 1145.83 397.386 1149.42 396.543 1154.17 395.602 1158.44 399.705 1160.73 403.967 1163.02 408.229 1164.45 413.17 1168.09 416.36 1171.72 419.55 1178.77 419.411 1180.2 414.792 1181.58 410.356 1176.96 406.574 1173.12 403.959 1169.28 401.344 1165.24 396.504 1167.82 392.645 1187.43 388.303 1207.17 383.946 1227.24 383.083 1230.65 383.202 1234.06 382.615 1237.24 381.36 1240.3 379.858 1242.73 376.449 1241.91 373.141 1232.95 375.246 1223.61 371.723 1218.27 364.226 1246.12 361.928 1275.74 359.969 1300.42 373.072 1303.38 379.429 1288.28 384.719 1292.32 390.453 1293.61 392.282 1296.19 392.496 1298.43 392.538 1315.58 392.856 1332.82 393.168 1349.78 390.579 1355.98 389.633 1362.24 388.297 1368.46 389.065 1378.82 390.342 1387.68 397.256 1397.88 399.51 1402.02 400.428 1406.68 400.459 1410.17 398.046 1413.67 395.632 1415.18 390.137 1412.31 387 1421.91 377.593 1437.84 379.925 1450.5 384.428 1463.16 388.932 1475.16 396.195 1488.56 397.199 1498.17 397.918 1507.91 395.333 1517.41 396.977 1523.38 398.009 1528.93 400.664 1534.76 402.295 1545.79 405.38 1557.46 404.728 1568.92 404.877 1598.14 405.271 1627.04 411.014 1654.2 421.822 1657.73 422.972 1660.96 424.884 1663.68 427.423 1666.2 430.129 1667.49 434.333 1665.79 437.623L1637.73 433.523C1640.38 438.727 1647.22 439.614 1652.77 441.409 1658.33 443.205 1664.08 449.338 1660.75 454.127 1654.73 452.211 1649.27 458.227 1646.23 463.763 1643.19 469.299 1639.49 475.929 1633.18 476.266 1627.54 476.568 1620.71 471.759 1617.03 476.053 1622.11 482.468 1626.47 489.431 1630.01 496.811 1633.65 504.387 1636.24 513.934 1631.32 520.75 1630.55 521.967 1629.37 522.877 1628 523.323 1623.99 524.339 1621.38 519.428 1618.5 516.451 1614.87 512.701 1609.39 511.638 1604.48 509.879 1599.56 508.12 1594.39 504.659 1594 499.455 1593.76 496.218 1595.47 493.208 1596.73 490.215 1598.85 485.171 1599.77 479.707 1599.44 474.248 1599.16 469.855 1597.93 465.286 1594.78 462.217 1591.62 459.149 1586.17 458.175 1582.79 460.986 1581.21 462.297 1579.94 464.395 1577.89 464.474 1574.26 464.612 1571.48 458.291 1568.56 460.449 1568.91 462.748 1568.43 465.094 1567.22 467.078 1558.51 474.648 1545.14 471.445 1533.92 474.12 1528.58 475.647 1523.47 477.878 1518.73 480.754 1516.95 481.513 1515.44 482.782 1514.38 484.399 1512.98 487.121 1514.53 490.608 1517 492.417 1519.61 494.023 1522.56 495.028 1525.61 495.358 1539.29 497.949 1553.17 501.96 1563.97 510.747 1574.77 519.534 1581.86 534.06 1578.44 547.558L1551.46 521.779C1552.48 532.603 1553.07 543.457 1553.2 554.341 1553.38 556.466 1553.09 558.603 1552.35 560.604 1550.43 564.852 1545.21 566.282 1540.65 567.219 1535.67 568.164 1532.4 572.963 1533.35 577.937 1533.42 578.285 1533.5 578.628 1533.61 578.965 1535.23 584.256 1539.28 588.38 1542.98 592.49 1546.69 596.599 1550.33 601.27 1550.82 606.782 1551.3 612.294 1547.15 618.507 1541.63 618.124 1537.44 617.833 1534.34 614.087 1532.55 610.291 1530.77 606.495 1529.7 602.267 1527.02 599.041 1518.91 589.278 1500.67 593.461 1493.4 583.053 1489.63 587.328 1488.35 593.25 1490 598.704 1493.38 596.586 1498.01 598.554 1500.56 601.631 1503.1 604.708 1504.3 608.653 1506.29 612.109 1508.99 616.773 1513.27 620.908 1513.65 626.28 1513.55 628.312 1513.58 630.348 1513.75 632.375 1514.42 635.63 1517.17 637.968 1519.08 640.689 1523.52 647.02 1523.3 655.718 1520.44 662.901 1517.58 670.085 1512.44 676.087 1507.34 681.907 1498.45 692.072 1489.38 702.177 1478.84 710.618 1475.83 713.027 1472.62 715.396 1470.74 718.763 1468.87 722.131 1468.77 726.857 1471.65 729.419 1469.59 729.522 1465.9 730.536 1463.84 730.639 1463.11 722.375 1462.96 714.071 1463.37 705.785 1455.24 701.882 1446.48 712.336 1447.53 721.293 1448.58 730.25 1455.06 737.437 1459.67 745.187 1463.05 750.854 1465.55 757.462 1464.43 763.96 1463.3 770.457 1457.5 776.452 1450.93 775.879 1440.48 774.967 1436.11 759.965 1425.76 758.248 1424.85 758.034 1423.89 758.129 1423.04 758.518 1421.5 759.362 1421.23 761.417 1421.15 763.167 1420.72 771.757 1420.36 780.688 1423.71 788.608 1428.62 800.193 1441.29 809.924 1438.63 822.222 1424.31 815.565 1416.86 799.506 1413.48 784.08 1410.1 768.654 1409.54 752.46 1403.48 737.877 1398.88 743.774 1389.21 738.899 1385 732.712 1381.02 726.846 1378.56 720.06 1374.7 714.115 1370.83 708.171 1364.9 702.847 1357.82 702.521 1350.39 702.178 1343.95 707.275 1338.29 712.091 1333.63 716.051 1328.84 720.167 1326.12 725.642 1322.16 733.608 1323.2 742.999 1323 751.895 1322.8 761.511 1320.76 771.658 1314.21 778.698 1307.65 785.738 1295.55 788.19 1288.32 781.845 1284.55 778.533 1282.72 773.584 1281.09 768.833 1273.25 745.934 1266.71 722.605 1261.52 698.962 1260.31 704.359 1255.57 711.314 1251.04 708.135 1250.03 707.281 1249.2 706.22 1248.63 705.024 1240.18 690.713 1224.55 682.129 1208.75 676.982 1192.95 671.835 1176.33 669.434 1160.7 663.778 1151.95 660.606 1143.58 656.441 1135.78 651.362 1131.72 657.318 1131.26 665.018 1134.58 671.414 1138.05 677.551 1145.89 681.101 1152.6 678.956 1156.07 677.848 1159 675.439 1162.44 674.25 1165.89 673.06 1170.51 673.644 1172.01 676.961 1173.45 680.135 1171.27 683.976 1172.35 687.29 1174 692.338 1181.61 692.727 1184.28 697.321 1186.26 700.739 1184.63 705.278 1181.8 708.036 1178.97 710.794 1175.2 712.306 1171.74 714.226 1160.54 720.456 1152.58 731.09 1142.78 739.363 1132.99 747.637 1119.18 753.677 1107.51 748.37 1110.29 734.287 1093.52 723.948 1090.43 709.928 1089.42 705.314 1089.94 700.412 1088.49 695.915 1086.39 689.404 1080.62 684.928 1075.88 679.994 1064.27 667.773 1058.09 651.378 1058.74 634.533 1059 628.739 1060.06 622.85 1058.74 617.203 1057.42 611.555 1052.74 606.089 1046.95 606.345 1033.72 606.929 1017.05 607.914 1010.1 596.633 1007.62 592.606 1006.55 586.709 1010.13 583.625 1012.66 581.449 1016.39 581.654 1019.71 581.98L1049.52 584.913C1056.5 585.599 1064.04 586.166 1070.02 582.52 1076 578.874 1078.6 569.196 1073.06 564.907 1069.01 561.773 1061.75 561.943 1060.58 556.96 1059.6 552.81 1064.19 548.101 1061.71 544.633 1059.93 542.146 1055.93 542.836 1053.51 544.7 1051.08 546.564 1049.33 549.291 1046.61 550.702 1041.85 553.178 1036.17 550.822 1031.05 549.22 1025.93 547.618 1019.07 547.482 1016.59 552.237 1013.81 557.554 1019.05 564.521 1016.29 569.849 1012.65 576.894 1000.31 572.883 995.195 578.943 989.324 585.896 999.19 596.263 997.21 605.146 992.068 607.693 985.965 607.35 981.14 604.243 976.387 601.01 973.796 595.427 974.395 589.71 974.885 585.714 976.968 581.635 975.572 577.859 974.444 574.806 971.379 572.989 968.53 571.414L939.554 555.402C936.864 560.393 940.265 566.58 944.518 570.328 948.772 574.076 954.099 576.899 956.894 581.832 960.563 588.927 958.073 597.652 951.211 601.741 950.373 602.32 949.324 602.503 948.339 602.242 947.405 601.693 946.733 600.79 946.477 599.737 941.364 586.654 933.688 573.754 921.416 566.92 909.144 560.086 891.511 561.491 883.464 573.004 881.552 575.738 880.269 578.855 878.604 581.746 869.758 597.107 850.793 604.38 833.073 603.905 831.34 604.001 829.616 603.596 828.106 602.738 825.243 600.76 825.372 596.563 825.81 593.111L827.67 578.459C828.044 575.517 828.585 572.264 830.913 570.428 834.196 567.839 838.931 569.473 843.112 569.412 849.599 569.109 855.205 564.782 857.143 558.583 858.864 552.356 856.997 545.687 852.293 541.258 850.377 539.458 847.805 537.198 848.817 534.772 849.635 533.413 851.011 532.486 852.578 532.24 860.086 530.059 868.021 529.488 875.404 526.915 882.788 524.342 889.949 519.078 891.697 511.457 892.233 509.121 892.477 506.292 894.575 505.134 895.628 504.69 896.758 504.459 897.901 504.455 906.198 503.274 912.221 495.954 911.782 487.584 915.32 485.112 920.278 486.93 923.702 489.56 927.125 492.19 930.147 495.665 934.313 496.799 942.076 498.911 949.577 492.038 957.622 492.006 961.006 491.993 964.508 493.189 967.691 492.042 970.917 490.879 972.844 487.667 975.321 485.295 977.797 482.922 982.142 481.474 984.429 484.031L982.482 469.607C990.415 471.611 998.828 470.09 1005.56 465.435L980.392 456.932C979.515 456.713 978.707 456.281 978.038 455.673 976.209 453.703 978.026 450.633 979.514 448.393 983.073 443.036 983.671 434.21 977.818 431.543 973.822 429.722 969.237 431.908 965.402 434.046L947.034 444.288C946.45 447.779 950.72 449.758 953.366 452.11 957.748 456.005 958.143 462.715 954.247 467.097 952.263 469.33 949.43 470.623 946.443 470.66 948.893 473.845 949.762 477.972 948.805 481.875L936.446 482.764C935.059 483.043 933.618 482.761 932.438 481.981 931.116 480.807 931.295 478.75 930.989 477.009 930.25 472.807 926.135 469.862 921.935 469.106 917.736 468.351 913.44 469.319 909.281 470.275 907.516 470.91 905.577 470.866 903.842 470.149 902.847 469.503 902.092 468.549 901.69 467.433 899.867 463.013 901.571 457.817 904.499 454.037 907.427 450.257 911.435 447.493 915.035 444.346 923.644 436.793 929.969 426.982 933.296 416.023 940.099 413.173 947.143 409.3 953.946 406.449 964.435 401.139 976.198 398.86 987.911 399.868L1010.95 400.308C1017.77 400.439 1024.78 400.606 1031.09 403.206 1037.39 405.807 1042.94 411.432 1043.37 418.241 1043.64 419.807 1043.08 421.402 1041.9 422.46 1041 422.946 1040 423.173 1038.98 423.116 1032.62 423.34 1029.91 424.925 1023.55 425.149Z" fill="#3F3D56" transform="matrix(1 0 0 1.34668 136.51 -28.136)"/><path d="M839.899 497.358C841.734 495.621 842.444 493.003 841.738 490.577 837.27 488.853 832.211 489.808 828.679 493.043 827.314 494.424 826.138 495.979 825.181 497.668 822.153 502.607 819.476 508.508 821.23 514.029 821.519 515.245 822.286 516.294 823.357 516.938 824.144 517.254 824.991 517.387 825.837 517.327 829.172 517.322 832.504 517.117 835.815 516.713 837.848 516.464 840.209 515.89 840.995 513.998 842.028 511.512 839.528 508.698 840.257 506.106 840.736 504.947 841.463 503.906 842.385 503.057 843.314 502.19 843.779 500.936 843.641 499.673 843.347 498.457 841.485 497.767 840.814 498.824" fill="#3F3D56" transform="matrix(1 0 0 1.34668 136.51 -28.136)"/><path d="M857.194 474.935C854.231 474.255 851.177 474.063 848.152 474.368 847.483 474.348 846.82 474.498 846.226 474.806 845.65 475.23 845.232 475.836 845.038 476.525 843.714 480.777 845.878 485.333 850.012 486.993 851.098 487.242 852.138 487.66 853.095 488.232 855.653 490.216 854.022 494.271 854.507 497.472 855.05 501.066 858.529 504.082 857.891 507.66 857.388 510.479 854.378 512.711 854.862 515.534 855.37 518.489 859.121 519.377 862.111 519.614 863.843 519.918 865.627 519.713 867.246 519.026 868.869 517.916 870.023 516.244 870.486 514.334 871.71 510.69 872.224 506.846 872.001 503.009 871.988 501.264 871.549 499.549 870.724 498.011 869.824 496.793 868.826 495.65 867.74 494.594 862.012 487.931 868.043 477.993 857.194 474.935Z" fill="#3F3D56" transform="matrix(1 0 0 1.34668 136.51 -28.136)"/><path d="M1610.42 996.883C1610.42 996.883 1171.71 745.055 982.839 792.769 982.839 792.769 582.564 835.845 536.175 930.612 536.175 930.612 408.935 532.989 362.546 519.734" stroke="#468871" stroke-width="3.21163" stroke-miterlimit="10" stroke-opacity="0.8" fill="none" transform="matrix(1 0 0 1.34668 136.51 -28.136)"/><path d="M536.175 930.612C609.735 734.451 1272.44 517.084 1272.44 517.084 1178.34 540.941 982.839 792.769 982.839 792.769 982.839 792.769 569.31 491.901 362.546 519.734 362.546 519.734 1273.1 549.556 1610.42 996.883" stroke="#468871" stroke-width="3.21163" stroke-miterlimit="10" stroke-opacity="0.8" fill="none" transform="matrix(1 0 0 1.34668 136.51 -28.136)"/><path d="M362.981 498.842C362.981 509.456 354.377 518.06 343.763 518.06 333.149 518.06 324.544 509.456 324.544 498.842 324.544 488.228 333.149 479.623 343.763 479.623 354.377 479.623 362.981 488.228 362.981 498.842Z" fill="#468871" transform="matrix(1 0 0 1.34668 155.293 1.22922e-13)"/><path d="M536.61 909.719C536.61 920.333 528.006 928.938 517.392 928.938 506.778 928.938 498.173 920.333 498.173 909.719 498.173 899.105 506.778 890.501 517.392 890.501 528.006 890.501 536.61 899.105 536.61 909.719Z" fill="#468871" transform="matrix(1 0 0 1.34668 155.293 1.22922e-13)"/><path d="M1272.88 496.191C1272.88 506.805 1264.27 515.409 1253.66 515.409 1243.04 515.409 1234.44 506.805 1234.44 496.191 1234.44 485.577 1243.04 476.972 1253.66 476.972 1264.27 476.972 1272.88 485.577 1272.88 496.191Z" fill="#468871" transform="matrix(1 0 0 1.34668 155.293 1.22922e-13)"/><path d="M1610.86 975.99C1610.86 986.604 1602.25 995.208 1591.64 995.208 1581.02 995.208 1572.42 986.604 1572.42 975.99 1572.42 965.376 1581.02 956.772 1591.64 956.772 1602.25 956.772 1610.86 965.376 1610.86 975.99Z" fill="#468871" transform="matrix(1 0 0 1.34668 155.293 1.22922e-13)"/><path d="M983.274 771.877C983.274 782.491 974.67 791.095 964.056 791.095 953.442 791.095 944.837 782.491 944.837 771.877 944.837 761.263 953.442 752.658 964.056 752.658 974.67 752.658 983.274 761.263 983.274 771.877Z" fill="#468871" transform="matrix(1 0 0 1.34668 155.293 1.22922e-13)"/></g></svg>