<svg width="1890" height="1890" xmlns="http://www.w3.org/2000/svg" xmlns:xlink="http://www.w3.org/1999/xlink" overflow="hidden"><defs><clipPath id="clip0"><rect x="196" y="41" width="1890" height="1890"/></clipPath></defs><g clip-path="url(#clip0)" transform="translate(-196 -41)"><path d="M436.36 162.036C436.36 198.472 406.823 228.009 370.387 228.009 333.951 228.009 304.414 198.472 304.414 162.036 304.414 125.6 333.951 96.0631 370.387 96.0631 406.823 96.0631 436.36 125.6 436.36 162.036Z" fill="#2F2E41" transform="matrix(1 0 0 1.39185 196 41.0569)"/><path d="M501.477 1235.62 542.01 1095.05 555.808 1099.36C555.808 1099.36 539.423 1204.57 513.551 1231.31Z" fill="#2F2E41" transform="matrix(1 0 0 1.39185 -136.027 -347.717)"/><path d="M655.845 481.028C655.845 481.028 661.019 536.221 648.946 551.744 636.873 567.267 656.708 597.45 656.708 597.45L692.928 640.57 746.396 616.423 754.158 571.579 748.983 540.533C748.983 540.533 730.873 522.422 738.635 489.652 746.396 456.881 655.845 481.028 655.845 481.028Z" fill="#FFB9B9" transform="matrix(1 0 0 1.39185 -136.027 -347.717)"/><path d="M655.845 481.028C655.845 481.028 661.019 536.221 648.946 551.744 636.873 567.267 656.708 597.45 656.708 597.45L692.928 640.57 746.396 616.423 754.158 571.579 748.983 540.533C748.983 540.533 730.873 522.422 738.635 489.652 746.396 456.881 655.845 481.028 655.845 481.028Z" fill="#000000" fill-opacity="0.1" transform="matrix(1 0 0 1.39185 -136.027 -347.717)"/><path d="M354.865 1233.99 354.865 1269.34 402.295 1278.83 397.983 1220.19 354.865 1233.99Z" fill="#FFB9B9" transform="matrix(1 0 0 1.39185 196 41.0569)"/><path d="M497.159 1220.19 486.809 1269.34 507.508 1284 543.728 1257.27 539.416 1215.01 497.159 1220.19Z" fill="#FFB9B9" transform="matrix(1 0 0 1.39185 196 41.0569)"/><path d="M738.635 1553.84C738.635 1553.84 720.524 1523.23 686.891 1542.42 686.891 1542.42 680.854 1576.26 674.818 1578.85 668.781 1581.44 635.148 1630.59 674.818 1634.9 714.488 1639.22 734.323 1626.28 734.323 1626.28 734.323 1626.28 726.561 1632.96 738.635 1629.51 750.708 1626.06 745.534 1607.09 745.534 1607.09Z" fill="#2F2E41" transform="matrix(1 0 0 1.39185 -136.027 -347.717)"/><path d="M856.782 1533.14C856.782 1533.14 830.048 1552.12 825.736 1543.49 821.424 1534.87 814.525 1535.73 814.525 1535.73 814.525 1535.73 790.378 1626.76 805.901 1631.07 815.896 1633.53 826.396 1632.99 836.084 1629.51 836.084 1629.51 856.782 1615.01 856.782 1626.23 856.782 1637.44 914.562 1636.63 938.709 1635.77 962.856 1634.9 949.92 1616.79 949.92 1616.79L918.012 1585.75 881.791 1533.14C881.791 1533.14 865.406 1518.48 856.782 1533.14Z" fill="#2F2E41" transform="matrix(1 0 0 1.39185 -136.027 -347.717)"/><path d="M602.377 956.204 638.597 1303.75C638.597 1303.75 658.432 1515.9 661.882 1519.34 665.331 1522.79 687.753 1534.01 736.91 1519.34L725.699 1241.66 746.396 1069.18 793.827 1188.19C793.827 1188.19 805.038 1508.13 812.8 1508.13 820.561 1508.13 867.993 1523.66 879.204 1504.68 890.415 1485.71 888.69 1281.33 888.69 1281.33 888.69 1281.33 883.516 958.791 845.571 948.443 807.626 938.094 602.377 956.204 602.377 956.204Z" fill="#2F2E41" transform="matrix(1 0 0 1.39185 -136.027 -347.717)"/><path d="M429.892 174.109C429.892 206.973 403.251 233.614 370.387 233.614 337.523 233.614 310.882 206.973 310.882 174.109 310.882 141.246 337.523 114.604 370.387 114.604 403.251 114.604 429.892 141.246 429.892 174.109Z" fill="#FFB9B9" transform="matrix(1 0 0 1.39185 196 41.0569)"/><path d="M705.864 619.01C705.864 619.01 699.827 581.927 699.827 575.028 699.827 568.129 673.093 563.817 673.093 563.817 673.093 563.817 652.396 540.533 648.084 543.982 643.772 547.432 578.23 591.414 567.881 597.45 557.533 603.487 546.322 629.359 547.184 631.083 548.046 632.808 601.515 744.919 601.515 744.919 601.515 744.919 624.799 813.91 608.414 850.13 592.028 886.351 571.331 957.929 601.515 972.59 631.698 987.25 778.304 1019.16 805.039 991.562 831.773 963.966 850.745 956.204 857.644 956.204 864.543 956.204 829.185 836.332 836.947 825.121 844.708 813.91 833.497 744.057 833.497 744.057L873.167 632.808C873.167 632.808 869.718 570.716 791.24 556.918L744.292 534.155Z" fill="#575A89" transform="matrix(1 0 0 1.39185 -136.027 -347.717)"/><path d="M544.597 971.727C544.597 971.727 540.285 1013.12 540.285 1025.2 540.285 1037.27 519.588 1107.98 549.771 1116.61 579.955 1125.23 577.368 1022.61 577.368 1022.61L577.368 970.003Z" fill="#FFB9B9" transform="matrix(1 0 0 1.39185 -136.027 -347.717)"/><path d="M902.489 932.92C902.489 932.92 907.663 972.59 905.076 981.214 902.489 989.838 930.085 1064.87 893.002 1069.18 855.919 1073.49 865.406 979.489 865.406 979.489L865.406 932.92Z" fill="#FFB9B9" transform="matrix(1 0 0 1.39185 -136.027 -347.717)"/><path d="M536.835 1221.82 561.845 1089.01 569.606 1089.01C580.638 1103.23 583.571 1122.13 577.368 1139.03 567.019 1168.35 558.395 1221.82 558.395 1221.82Z" fill="#2F2E41" transform="matrix(1 0 0 1.39185 -136.027 -347.717)"/><path d="M560.12 620.735 547.184 631.083C547.184 631.083 529.936 905.323 534.248 926.021 538.56 946.718 518.725 976.039 535.973 978.626 553.221 981.214 573.918 992.425 583.404 985.526 592.891 978.626 594.615 953.617 598.065 947.58 601.515 941.544 607.551 869.965 607.551 869.965 607.551 869.965 625.661 798.387 614.45 744.919 603.239 691.451 592.891 637.12 592.891 637.12Z" fill="#575A89" transform="matrix(1 0 0 1.39185 -136.027 -347.717)"/><path d="M833.497 599.175 873.167 632.808 903.351 808.736C903.351 808.736 922.323 945.856 907.663 947.581 893.002 949.305 870.58 944.993 861.094 947.581 851.607 950.168 843.846 943.269 843.846 943.269 843.846 943.269 833.497 888.076 833.497 887.213 833.497 886.351 826.598 823.396 826.598 823.396L817.974 752.68 830.91 675.065Z" fill="#575A89" transform="matrix(1 0 0 1.39185 -136.027 -347.717)"/><path d="M646.359 1413.27C646.359 1413.27 640.753 1429.37 633.026 1451.29 629.439 1461.49 625.394 1472.95 621.229 1484.63 618.547 1492.19 615.822 1499.84 613.14 1507.31 608.862 1519.25 604.705 1530.72 601.075 1540.57 596.28 1553.56 592.39 1563.75 590.303 1568.5 580.817 1590.06 407.477 1555.57 393.679 1546.94 379.88 1538.32 376.431 1509 374.706 1467.6 374.697 1467.39 374.689 1467.17 374.689 1466.95 374.465 1458.6 376.595 1446.15 380.156 1431.55 381.933 1424.26 384.072 1416.43 386.452 1408.29 389.643 1397.39 393.265 1385.95 397.051 1374.57 413.315 1325.67 432.486 1277.88 432.486 1277.88 432.486 1277.88 466.119 1254.59 478.193 1239.07 490.266 1223.55 556.67 1211.47 556.67 1211.47 575.643 1212.33 618.762 1285.64 636.01 1308.06 653.258 1330.48 646.359 1413.27 646.359 1413.27Z" fill="#3F3D56" transform="matrix(1 0 0 1.39185 -136.027 -347.717)"/><path d="M225.506 995.104C225.506 999.391 222.031 1002.87 217.744 1002.87 213.458 1002.87 209.983 999.391 209.983 995.104 209.983 990.818 213.458 987.343 217.744 987.343 222.031 987.343 225.506 990.818 225.506 995.104Z" fill="#2F2E41" transform="matrix(1 0 0 1.39185 196 41.0569)"/><path d="M234.13 1003.73C234.13 1006.11 232.199 1008.04 229.818 1008.04 227.436 1008.04 225.506 1006.11 225.506 1003.73 225.506 1001.35 227.436 999.416 229.818 999.416 232.199 999.416 234.13 1001.35 234.13 1003.73Z" fill="#2F2E41" transform="matrix(1 0 0 1.39185 196 41.0569)"/><path d="M633.026 1451.29C629.439 1461.49 625.394 1472.95 621.229 1484.63L386.452 1408.29C389.643 1397.39 393.265 1385.95 397.051 1374.57Z" fill="#F2F2F2" transform="matrix(1 0 0 1.39185 -136.027 -347.717)"/><path d="M613.14 1507.31C608.862 1519.25 604.705 1530.72 601.075 1540.57L374.689 1466.95C374.465 1458.6 376.595 1446.15 380.157 1431.55Z" fill="#F2F2F2" transform="matrix(1 0 0 1.39185 -136.027 -347.717)"/><path d="M549.771 1276.15C549.771 1276.15 567.019 1352.04 556.67 1419.31 546.322 1486.57 582.542 1549.53 582.542 1549.53" stroke="#2F2E41" stroke-width="6.38514" stroke-miterlimit="10" fill="none" transform="matrix(1 0 0 1.39185 -136.027 -347.717)"/><path d="M561.845 1282.19C561.845 1282.19 528.211 1404.65 527.349 1421.89 526.487 1439.14 512.688 1562.46 495.441 1575.4" stroke="#2F2E41" stroke-width="6.38514" stroke-miterlimit="10" fill="none" transform="matrix(1 0 0 1.39185 -136.027 -347.717)"/><path d="M656.731 417.12C656.731 417.12 643.262 382.1 662.793 370.651L668.18 386.141C668.18 386.141 717.343 356.508 730.139 363.243L718.017 379.406C718.017 379.406 775.262 379.406 779.302 401.63L759.098 402.304C759.098 402.304 780.649 416.447 781.323 439.345L738.221 442.038 759.099 454.161C759.099 454.161 680.976 464.936 662.119 433.957Z" fill="#2F2E41" transform="matrix(1 0 0 1.39185 -136.027 -347.717)"/><path d="M645.065 418.504C645.065 418.504 660.588 449.551 681.286 441.789 701.983 434.027 681.286 405.569 681.286 405.569L667.487 398.669Z" fill="#2F2E41" transform="matrix(1 0 0 1.39185 -136.027 -347.717)"/><path d="M1983.65 908.287 1702.17 556.544C1689.39 568.233 1673.64 576.184 1656.65 579.53 1603.66 589.966 1551.91 553.779 1541.06 498.704 1533.44 461.583 1547.01 423.295 1576.3 399.256L1480.33 279.322 933.538 746.636 1436.86 1375.6Z" fill="#F2F2F2" transform="matrix(1 0 0 1.39185 -136.027 -347.717)"/><path d="M1381.23 204.143C1381.23 247.968 1345.7 283.496 1301.87 283.496 1258.05 283.496 1222.52 247.968 1222.52 204.143 1222.52 160.317 1258.05 124.789 1301.87 124.789 1345.7 124.789 1381.23 160.317 1381.23 204.143Z" fill="#F2F2F2" transform="matrix(1 0 0 1.39185 196 41.0569)"/><path d="M1288.51 934.625 1330.21 934.625 1330.21 1056.01 1288.51 1056.01Z" fill="#468871" transform="matrix(0.582292 -0.937951 0.673888 0.810463 -403.058 1307.53)"/><path d="M1873.72 1501.24 1915.42 1501.24 1915.42 1608.84 1873.72 1608.84Z" fill="#468871" transform="matrix(0.582292 -0.937951 0.673888 0.810463 -599.817 2096.62)"/><path d="M1794.22 1130.27 1794.22 1132.45C1794.17 1137.92 1794.02 1143.37 1793.75 1148.79 1783.54 1349.52 1612.54 1503.97 1411.8 1493.76 1227.17 1484.37 1078.91 1338.04 1067.1 1153.54 1066.61 1145.84 1066.36 1138.08 1066.36 1130.27 1066.23 1054.89 1089.62 981.354 1133.28 919.907 1136.77 914.956 1140.4 910.095 1144.17 905.325 1146.77 902.008 1149.44 898.764 1152.14 895.546 1279.93 744.155 1505.33 722.766 1659.32 847.418 1663.7 850.958 1668.01 854.622 1672.22 858.36 1675.59 861.356 1678.9 864.418 1682.15 867.545 1746.18 928.798 1785.6 1011.36 1792.96 1099.67 1793.8 1109.77 1794.22 1119.97 1794.22 1130.27Z" fill="#3F3D56" transform="matrix(1 0 0 1.39185 -136.027 -347.717)"/><path d="M1430.29 1540C1204.36 1540 1020.56 1356.2 1020.56 1130.27 1020.42 1026.9 1059.49 927.329 1129.88 851.633L1138.96 860.054C1070.69 933.462 1032.81 1030.03 1032.94 1130.27 1032.94 1349.37 1211.19 1527.62 1430.29 1527.62 1537.87 1527.99 1640.92 1484.37 1715.55 1406.89L1724.44 1415.51C1647.48 1495.4 1541.22 1540.38 1430.29 1540Z" fill="#468871" transform="matrix(1 0 0 1.39185 -136.027 -347.717)"/><path d="M1053.7 1252.02 1157.68 1252.02 1157.68 1356 1053.7 1356Z" fill="#468871" transform="matrix(1 0 0 1.39185 196 41.0569)"/><path d="M1144.17 905.325C1144.35 905.4 1144.52 905.5 1144.67 905.622 1146.62 907.231 1144.17 910.326 1144.47 912.876 1144.81 916.144 1149.17 916.862 1152.46 917.184 1155.76 917.53 1159.92 920.179 1158.36 923.101 1150.09 925.948 1141.72 923.15 1133.28 919.907 1089.62 981.354 1066.23 1054.89 1066.36 1130.27 1066.36 1138.09 1066.61 1145.85 1067.1 1153.54 1067.79 1154.05 1068.55 1154.45 1069.35 1154.75 1071.83 1155.7 1074.7 1155.52 1076.98 1156.86 1078.79 1157.92 1080 1159.81 1081.81 1160.8 1086.98 1163.62 1094.16 1158.2 1098.99 1161.56 1100.24 1162.7 1101.42 1163.91 1102.53 1165.18 1106.99 1169.04 1114.31 1166.44 1119.46 1169.34 1122.78 1171.19 1124.49 1174.91 1126.27 1178.27 1130.7 1186.69 1137.88 1194.96 1147.36 1195.63 1150.35 1195.49 1153.35 1195.59 1156.33 1195.93 1159.25 1196.59 1162.12 1199.14 1161.65 1202.09 1160.83 1207.17 1163.33 1212.71 1162.66 1217.79 1161.45 1227.07 1148.31 1231.13 1147.19 1240.42 1147.19 1242.46 1147.07 1244.5 1146.84 1246.53 1146.25 1248.96 1144.42 1250.94 1143.77 1253.36 1142.54 1257.94 1145.83 1262.52 1149.42 1265.59 1153.03 1268.69 1157.34 1271.36 1159.32 1275.67 1161.4 1280.25 1160.39 1285.57 1161.06 1290.55 1162.54 1301.42 1171.92 1309.46 1181.58 1314.66 1184.67 1315.96 1187.42 1317.96 1189.6 1320.5 1192.08 1324.09 1191.83 1328.82 1192.67 1333.11 1194.7 1343.58 1203.51 1352.22 1203.76 1362.89 1203.93 1370.49 1199.73 1377.37 1197.2 1384.53 1194.6 1392.03 1193.83 1400.04 1194.95 1407.9 1209.06 1419.87 1224.07 1430.75 1239.83 1440.45 1240.69 1439.19 1241.32 1437.78 1241.69 1436.29 1242.3 1432.93 1240.78 1429.55 1237.85 1427.78 1240.51 1426.77 1242.93 1425.22 1244.96 1423.22 1246.99 1421.13 1247.51 1417.98 1246.24 1415.35 1250.6 1415.89 1255.78 1416.17 1258.65 1412.82 1260.95 1410.15 1260.8 1406.14 1259.89 1402.75 1258.63 1399.45 1257.8 1396.01 1257.41 1392.5 1267.51 1392.99 1277.62 1392.65 1287.66 1391.48 1286.21 1386.59 1282.91 1382.45 1278.45 1379.95 1283.01 1379.18 1287.14 1373.73 1288.58 1369.35 1289.82 1364.88 1289.89 1360.16 1288.78 1355.66 1288.43 1354.5 1288.38 1353.28 1288.63 1352.1 1289.36 1350.53 1290.65 1349.28 1292.24 1348.6 1299.77 1344.27 1307.3 1339.95 1314.82 1335.63 1316.17 1334.95 1317.39 1334.06 1318.44 1332.98 1320.79 1330.18 1320.44 1326 1319.23 1322.56 1318.02 1319.12 1316.09 1315.88 1315.61 1312.26 1314.23 1301.44 1325.81 1293.67 1329.73 1283.47 1331.06 1279.4 1331.77 1275.15 1331.86 1270.87 1332.18 1266.26 1332.2 1260.94 1328.69 1257.99 1325.3 1255.15 1320.02 1255.79 1316.48 1253.14 1313.24 1250.71 1312.12 1246.03 1308.58 1244.08 1305.37 1242.3 1301.35 1243.44 1297.77 1242.59 1291.48 1241.13 1287.52 1233.88 1281.08 1233.21 1277.46 1232.81 1273.35 1234.6 1270.38 1232.49 1267.76 1230.61 1267.66 1226.87 1267.16 1223.7 1265.36 1213.59 1257.46 1205.67 1247.36 1203.85 1243.62 1203.25 1239.56 1203.48 1236.37 1201.42 1233.15 1199.34 1231.69 1195.46 1229.14 1192.56 1225.08 1187.93 1218.64 1186.27 1212.62 1184.86 1204.45 1182.95 1196.29 1181.04 1188.14 1179.12 1183.81 1178.08 1178.21 1177.53 1175.86 1181.34 1175.16 1182.79 1174.68 1184.34 1174.42 1185.92 1172.61 1191.78 1167.24 1195.82 1161.1 1195.93 1159.06 1192.43 1155.74 1189.86 1151.85 1188.75 1149.3 1188.32 1146.79 1187.72 1144.32 1186.96 1139.09 1184.4 1136.93 1178.09 1139.49 1172.86 1139.58 1172.68 1139.67 1172.5 1139.76 1172.33 1142.65 1167.17 1141.73 1160.71 1137.51 1156.56 1133.35 1152.82 1127.34 1151.91 1121.74 1152.28 1120.28 1149.09 1122.73 1145.5 1125.36 1143.17 1128 1140.87 1131.2 1138.59 1131.77 1135.12 1132.68 1129.68 1125.73 1125.54 1120.45 1127.15 1115.18 1128.78 1111.81 1133.91 1109.58 1138.96 1108.5 1141.94 1107.03 1144.76 1105.2 1147.35 1103.29 1149.97 1100.08 1151.29 1096.88 1150.77 1092.53 1149.65 1090.87 1144.48 1089.9 1140.12 1088.36 1134.3 1087.57 1128.3 1087.58 1122.27 1087.61 1116.19 1090.03 1110.36 1094.31 1106.03 1101.51 1099.4 1112.61 1100.04 1122.33 1101.11 1120.18 1098.23 1120.5 1094.2 1123.08 1091.7 1125.72 1089.35 1129.35 1088.46 1132.78 1089.32 1135.72 1089.93 1138.36 1091.51 1140.28 1093.8 1143.06 1097.17 1143.85 1101.75 1145.93 1105.56 1148.03 1109.4 1152.74 1112.67 1156.57 1110.61 1159.92 1108.83 1160.44 1104.22 1159.62 1100.54 1158.78 1096.87 1157.02 1093.28 1157.32 1089.52 1157.89 1082.36 1165.34 1078.03 1171.9 1075.09 1178.46 1072.14 1185.96 1068.15 1187 1061.02 1187.05 1059.64 1187.32 1058.27 1187.79 1056.96 1188.52 1055.8 1189.53 1054.84 1190.74 1054.19 1209.88 1041.54 1229.36 1028.72 1251.25 1021.81 1252.39 1021.44 1252.51 1021.83 1253.67 1021.56 1255.31 1020.62 1254.22 1018.02 1252.66 1016.98 1251.1 1015.94 1249.02 1015.12 1248.62 1013.29 1248.35 1011.95 1249.14 1010.62 1249.34 1009.26 1249.51 1006.48 1247.41 1004.09 1244.63 1003.91 1243.99 1003.87 1243.34 1003.95 1242.73 1004.16 1240.97 1001.83 1244.44 999.13 1247.26 998.338 1255.71 996.023 1264.38 994.612 1273.13 994.129 1274.14 993.963 1275.18 994.137 1276.08 994.625 1277.41 995.913 1277.51 998.02 1276.3 999.427 1275.11 1000.75 1273.79 1001.95 1272.36 1003.02 1269.47 1005.83 1268.38 1010.02 1269.54 1013.89 1274.12 1016.21 1279.07 1018.61 1284.15 1017.8 1289.2 1016.98 1293.68 1011.29 1291.3 1006.76 1289.1 1002.52 1282.44 1001.56 1281.3 996.927 1279.96 991.505 1287.64 986.677 1285.91 981.379 1285.16 979.052 1282.84 977.666 1281.05 976.007 1276.76 971.78 1275.49 965.356 1277.86 959.816 1271.98 960.843 1265.96 958.961 1261.72 954.765 1257.86 950.878 1254.79 944.714 1249.29 944.912 1244.26 945.06 1239.93 950.928 1235.23 949.145 1234.06 948.7 1232.85 947.809 1231.74 948.328 1230.99 948.807 1230.51 949.601 1230.43 950.482 1229.24 956.201 1231.29 962.712 1228.17 967.664 1224.78 973.036 1216.93 973.779 1212.82 978.631 1210.59 981.256 1209.73 984.796 1207.67 987.569 1205.62 990.342 1201.29 992.124 1198.81 989.698 1201.31 984.579 1199.93 978.414 1195.49 974.844 1193.21 973.347 1190.75 972.149 1188.16 971.279 1185.28 970.06 1182.53 968.533 1179.97 966.723 1178.69 965.946 1177.66 964.833 1176.97 963.505 1176.43 961.835 1176.5 960.028 1177.17 958.405 1179.73 951.118 1186.1 945.841 1193.73 944.689 1197 944.244 1200.82 944.392 1202.99 941.892 1204.13 940.579 1204.73 938.574 1206.41 938.054 1207.47 937.833 1208.57 937.963 1209.55 938.425 1213.64 939.861 1217.7 941.297 1221.78 942.733 1223.15 943.358 1224.65 943.606 1226.14 943.451 1227.68 943.254 1228.79 941.899 1228.69 940.357 1228.3 938.327 1225.18 937.361 1225.47 935.306 1225.62 934.635 1225.97 934.027 1226.49 933.573 1235.43 924.064 1248.15 919.043 1261.17 919.882 1262.71 922.432 1260.28 925.428 1258.23 927.582 1256.2 929.76 1254.56 933.623 1257.04 935.281 1258.04 935.805 1259.16 936.061 1260.28 936.024 1263.29 936.428 1266.22 937.314 1268.95 938.648 1273.18 940.48 1277.34 942.511 1281.4 944.689 1280.8 942.035 1280.91 939.271 1281.7 936.668 1282.62 934.021 1285.41 932.51 1288.13 933.177 1290.56 934.118 1291.8 937.336 1294.4 937.633 1297.84 938.03 1299.2 932.929 1297.77 929.761 1296.33 926.592 1293.46 923.967 1293.23 920.477 1293.06 918.149 1293.95 915.253 1292.1 913.842 1291.44 913.404 1290.68 913.132 1289.89 913.049 1274.34 910.202 1258.79 907.347 1243.22 904.483 1240.45 903.963 1236.47 904.359 1236.34 907.157 1236.27 908.742 1237.68 910.301 1237.06 911.737 1236.39 913.272 1234.21 913.148 1232.63 913.693 1230.18 914.803 1228.77 917.399 1229.16 920.056 1229.59 922.63 1230.58 925.076 1232.08 927.211 1229.04 925.948 1224.46 925.725 1221.41 924.438 1220.97 920.912 1220.07 917.458 1218.74 914.163 1218.45 912.181 1216.61 910.808 1214.63 911.096 1214.42 911.126 1214.21 911.175 1214.01 911.242 1210 911.861 1205.99 912.455 1201.98 913.074 1200.97 913.122 1200.01 913.495 1199.23 914.139 1197.67 915.797 1199.21 918.447 1199.16 920.724 1198.86 923.335 1196.94 925.471 1194.38 926.047 1191.86 926.559 1189.26 926.525 1186.75 925.948 1181.13 925.081 1175.54 924.215 1169.92 923.348 1174.88 921.768 1179.29 918.815 1182.64 914.832 1184.87 912.208 1186.06 907.306 1182.84 906.068 1181.89 905.807 1180.9 905.731 1179.92 905.845 1172.3 905.894 1166.28 899.532 1159.15 896.833 1156.91 895.997 1154.54 895.561 1152.14 895.546Z" fill="#468871" transform="matrix(1 0 0 1.39185 -136.027 -347.717)"/><path d="M1793.75 1148.79C1791.98 1151.17 1789.14 1152.51 1786.18 1152.38 1778.43 1151.71 1775.16 1140.54 1767.49 1139.28 1766.81 1139.11 1766.09 1139.18 1765.46 1139.48 1764.32 1140.1 1764.12 1141.63 1764.04 1142.92 1763.72 1149.31 1763.45 1155.94 1765.95 1161.84 1769.59 1170.45 1779.02 1177.68 1777.04 1186.82 1766.4 1181.89 1760.85 1169.93 1758.35 1158.47 1755.82 1147.01 1755.43 1134.97 1750.92 1124.13 1747.48 1128.51 1740.3 1124.9 1737.18 1120.29 1734.21 1115.94 1732.38 1110.88 1729.51 1106.45 1726.64 1102.05 1722.23 1098.09 1716.98 1097.84 1711.46 1097.59 1706.66 1101.38 1702.45 1104.97 1698.79 1107.67 1695.71 1111.09 1693.41 1115.02 1690.47 1120.96 1691.23 1127.94 1691.08 1134.55 1690.94 1141.68 1689.43 1149.23 1684.55 1154.48 1679.67 1159.71 1670.68 1161.54 1665.31 1156.81 1662.71 1154.1 1660.86 1150.77 1659.94 1147.13 1654.1 1130.11 1649.24 1112.77 1645.38 1095.19 1644.49 1099.2 1640.95 1104.37 1637.58 1102.02 1636.83 1101.38 1636.22 1100.59 1635.8 1099.69 1629.51 1089.07 1617.9 1082.69 1606.14 1078.85 1594.41 1075.04 1582.05 1073.25 1570.44 1069.04 1563.93 1066.68 1557.71 1063.58 1551.9 1059.81 1548.89 1064.24 1548.55 1069.96 1551.01 1074.71 1553.69 1079.41 1559.2 1081.72 1564.43 1080.33 1567 1079.49 1569.18 1077.71 1571.73 1076.82 1574.28 1075.95 1577.72 1076.37 1578.83 1078.85 1579.92 1081.2 1578.29 1084.05 1579.11 1086.52 1580.32 1090.26 1585.99 1090.56 1587.97 1093.98 1589.16 1096.75 1588.41 1099.98 1586.11 1101.95 1583.83 1103.8 1581.32 1105.35 1578.64 1106.55 1570.32 1111.18 1564.4 1119.08 1557.12 1125.22 1549.84 1131.38 1539.57 1135.86 1530.9 1131.93 1532.96 1121.46 1520.51 1113.78 1518.2 1103.36 1517.44 1099.92 1517.83 1096.28 1516.77 1092.94 1515.21 1088.08 1510.9 1084.77 1507.39 1081.1 1498.76 1072.01 1494.16 1059.83 1494.64 1047.31 1494.83 1043 1495.63 1038.62 1494.64 1034.41 1493.67 1030.23 1490.18 1026.17 1485.87 1026.34 1476.04 1026.78 1463.64 1027.53 1458.49 1019.13 1456.63 1016.14 1455.84 1011.76 1458.51 1009.45 1460.62 1008.12 1463.18 1007.68 1465.62 1008.24 1473.02 1008.96 1480.4 1009.7 1487.8 1010.42 1492.98 1010.91 1498.57 1011.34 1503.03 1008.64 1507.48 1005.94 1509.41 998.734 1505.28 995.54 1502.28 993.213 1496.89 993.337 1496 989.648 1495.28 986.553 1498.7 983.063 1496.84 980.463 1495.53 978.631 1492.56 979.126 1490.75 980.513 1489.17 982.15 1487.46 983.649 1485.62 984.994 1482.08 986.826 1477.87 985.068 1474.06 983.88 1470.25 982.691 1465.15 982.592 1463.32 986.133 1461.24 990.069 1465.12 995.268 1463.09 999.229 1460.37 1004.45 1451.21 1001.48 1447.4 1005.99 1443.04 1011.14 1450.37 1018.86 1448.91 1025.45 1445.08 1027.34 1440.54 1027.09 1436.95 1024.78 1433.42 1022.38 1431.5 1018.23 1431.95 1013.98 1432.3 1011.01 1433.86 1007.97 1432.82 1005.17 1431.69 1003.01 1429.84 1001.32 1427.59 1000.39 1420.41 996.407 1413.23 992.437 1406.05 988.484 1404.05 992.198 1406.57 996.778 1409.74 999.576 1412.89 1002.35 1416.85 1004.45 1418.93 1008.12 1421.66 1013.39 1419.82 1019.88 1414.72 1022.92 1414.09 1023.35 1413.3 1023.49 1412.56 1023.29 1411.87 1022.89 1411.37 1022.22 1411.18 1021.44 1407.39 1011.71 1401.67 1002.13 1392.56 997.05 1383.43 991.95 1370.33 993.015 1364.34 1001.56 1362.93 1003.59 1361.96 1005.91 1360.72 1008.07 1354.16 1019.48 1340.05 1024.88 1326.88 1024.53 1325.59 1024.61 1324.31 1024.31 1323.19 1023.66 1321.06 1022.2 1321.16 1019.08 1321.48 1016.51 1321.95 1012.87 1322.4 1009.26 1322.87 1005.62 1322.88 1003.39 1323.74 1001.26 1325.27 999.65 1327.72 997.719 1331.24 998.932 1334.36 998.882 1339.18 998.667 1343.35 995.448 1344.78 990.836 1346.06 986.207 1344.67 981.25 1341.16 977.962 1339.75 976.626 1337.85 974.942 1338.59 973.135 1339.2 972.127 1340.22 971.439 1341.39 971.253 1346.96 969.644 1352.87 969.223 1358.35 967.292 1363.84 965.386 1369.16 961.474 1370.48 955.805 1370.87 954.072 1371.05 951.967 1372.61 951.101 1373.39 950.785 1374.23 950.617 1375.08 950.606 1381.25 949.721 1385.73 944.278 1385.41 938.054 1388.03 936.222 1391.72 937.583 1394.27 939.539 1396.79 941.495 1399.05 944.07 1402.14 944.912 1407.91 946.496 1413.48 941.371 1419.47 941.346 1422 941.346 1424.6 942.238 1426.95 941.371 1429.35 940.505 1430.79 938.128 1432.62 936.37 1434.47 934.588 1437.69 933.523 1439.4 935.43 1438.91 931.84 1438.44 928.275 1437.94 924.71 1443.84 926.196 1450.1 925.058 1455.1 921.59 1448.86 919.486 1442.64 917.381 1436.41 915.277 1435.75 915.116 1435.15 914.792 1434.65 914.336 1433.29 912.876 1434.65 910.598 1435.74 908.939 1438.39 904.953 1438.83 898.393 1434.47 896.412 1431.5 895.05 1428.11 896.685 1425.27 898.269 1420.71 900.794 1416.15 903.344 1411.6 905.869 1411.18 908.469 1414.35 909.954 1416.3 911.687 1419.56 914.578 1419.86 919.564 1416.97 922.824 1415.49 924.489 1413.38 925.453 1411.15 925.477 1412.97 927.849 1413.62 930.916 1412.91 933.82 1409.87 934.043 1406.8 934.266 1403.73 934.489 1402.7 934.694 1401.63 934.48 1400.76 933.894 1399.77 933.028 1399.91 931.493 1399.67 930.206 1398.83 927.057 1396.16 924.734 1392.93 924.338 1389.78 923.984 1386.58 924.278 1383.55 925.205 1382.23 925.67 1380.78 925.635 1379.49 925.106 1378.75 924.619 1378.2 923.907 1377.9 923.076 1376.81 919.623 1377.6 915.848 1379.98 913.123 1382.36 910.483 1384.98 908.071 1387.81 905.919 1394.21 900.31 1398.92 893.021 1401.4 884.875 1406.45 882.746 1411.67 879.874 1416.75 877.745 1420.83 875.854 1425.1 874.418 1429.5 873.462 1433.63 872.83 1437.82 872.631 1442 872.868 1447.7 872.967 1453.41 873.066 1459.11 873.19 1464.19 872.976 1469.27 873.706 1474.09 875.344 1478.77 877.275 1482.9 881.459 1483.22 886.509 1483.42 887.679 1483 888.869 1482.11 889.653 1481.45 890.017 1480.7 890.188 1479.95 890.148 1475.23 890.297 1473.22 891.485 1468.49 891.659 1471.49 894.852 1474.85 898.219 1479.21 898.789 1486.89 899.779 1492.41 891.832 1495.95 884.925 1496.21 888.581 1499.34 891.36 1503 891.188 1504.9 890.862 1506.71 890.155 1508.33 889.109 1523.55 880.786 1540.61 876.38 1557.96 876.284 1557.61 873.563 1559.38 871.016 1562.05 870.392 1565.59 869.699 1568.76 872.744 1570.47 875.913 1572.15 879.082 1573.21 882.746 1575.94 885.123 1578.64 887.499 1583.86 887.375 1584.92 883.959 1585.96 880.666 1582.52 877.844 1579.68 875.888 1576.8 873.957 1573.81 870.367 1575.74 867.495 1590.3 864.252 1604.98 861.034 1619.91 860.39 1622.44 860.467 1624.97 860.029 1627.33 859.103 1629.74 858.084 1631.16 855.576 1630.8 852.988 1624.14 854.542 1617.2 851.922 1613.22 846.353 1628.55 845.09 1644.59 843.976 1659.32 847.417L1672.22 858.36C1669.77 860.91 1666.5 863.311 1668.28 865.862 1669.47 867.048 1671.14 867.623 1672.81 867.421 1675.93 867.471 1679.05 867.545 1682.15 867.545 1746.18 928.798 1785.6 1011.36 1792.96 1099.67 1787.76 1099.47 1782.98 1106.06 1783.65 1111.8 1784.44 1118.46 1789.25 1123.81 1792.69 1129.55 1793.26 1130.49 1793.77 1131.45 1794.22 1132.45Z" fill="#468871" transform="matrix(1 0 0 1.39185 -136.027 -347.717)"/><path d="M0 1355.7 1890 1355.7" stroke="#3F3D56" stroke-width="4.25676" stroke-miterlimit="10" fill="none" transform="matrix(1 0 0 1.39185 196 41.0569)"/><path d="M811.142 138.919C811.142 156.263 797.081 170.324 779.736 170.324 762.391 170.324 748.331 156.263 748.331 138.919 748.331 121.574 762.391 107.513 779.736 107.513 797.081 107.513 811.142 121.574 811.142 138.919Z" stroke="#3F3D56" stroke-width="4.25676" stroke-miterlimit="10" fill="none" transform="matrix(1 0 0 1.39185 196 41.0569)"/><path d="M1739.11 736.993C1739.11 754.338 1725.05 768.398 1707.71 768.398 1690.36 768.398 1676.3 754.338 1676.3 736.993 1676.3 719.648 1690.36 705.588 1707.71 705.588 1725.05 705.588 1739.11 719.648 1739.11 736.993Z" stroke="#3F3D56" stroke-width="4.25676" stroke-miterlimit="10" fill="none" transform="matrix(1 0 0 1.39185 196 41.0569)"/><path d="M1524.72 424.121C1524.72 441.466 1510.66 455.527 1493.31 455.527 1475.97 455.527 1461.91 441.466 1461.91 424.121 1461.91 406.777 1475.97 392.716 1493.31 392.716 1510.66 392.716 1524.72 406.777 1524.72 424.121Z" stroke="#3F3D56" stroke-width="4.25676" stroke-miterlimit="10" fill="none" transform="matrix(1 0 0 1.39185 196 41.0569)"/><path d="M1322.5 689.427C1322.5 708.892 1306.72 724.671 1287.26 724.671 1267.8 724.671 1252.02 708.892 1252.02 689.427 1252.02 669.963 1267.8 654.183 1287.26 654.183 1306.72 654.183 1322.5 669.963 1322.5 689.427Z" fill="#3F3D56" transform="matrix(1 0 0 1.39185 196 41.0569)"/><path d="M1446.93 576.146C1446.93 601.804 1426.13 622.604 1400.47 622.604 1374.81 622.604 1354.01 601.804 1354.01 576.146 1354.01 550.489 1374.81 529.689 1400.47 529.689 1426.13 529.689 1446.93 550.489 1446.93 576.146Z" fill="#FFFFFF" transform="matrix(1 0 0 1.39185 196 41.0569)"/><path d="M1779.48 807.306C1753.52 781.975 1711.93 782.49 1686.6 808.456 1661.27 834.422 1625.11 965.554 1625.11 965.554 1625.11 965.554 1755.3 926.153 1780.63 900.187 1805.96 874.221 1805.45 832.637 1779.48 807.306ZM1711.24 877.256C1699.21 865.517 1698.97 846.247 1710.71 834.214 1722.45 822.181 1741.72 821.942 1753.75 833.68 1765.79 845.419 1766.02 864.69 1754.29 876.723 1742.55 888.756 1723.28 888.995 1711.24 877.256Z" fill="#57B894" transform="matrix(1 0 0 1.39185 -136.027 -347.717)"/></g></svg>